<mxfile host="app.diagrams.net" modified="2022-04-13T02:37:31.249Z" agent="5.0 (Windows NT 10.0; Win64; x64) AppleWebKit/537.36 (KHTML, like Gecko) Chrome/100.0.4896.88 Safari/537.36" etag="l18wkaAWuDkgeNB3FR84" version="17.4.1" type="github">
  <diagram id="Usz0IjKjUA_BMBe5iZc2" name="第 1 页">
    <mxGraphModel dx="1038" dy="539" grid="1" gridSize="10" guides="1" tooltips="1" connect="1" arrows="1" fold="1" page="1" pageScale="1" pageWidth="827" pageHeight="1169" math="0" shadow="0">
      <root>
        <mxCell id="0" />
        <mxCell id="1" parent="0" />
        <mxCell id="3cVmpTpY63DD1FdDT410-2" value="" style="shape=image;verticalLabelPosition=bottom;labelBackgroundColor=default;verticalAlign=top;aspect=fixed;imageAspect=0;image=data:image/png,iVBORw0KGgoAAAANSUhEUgAAAlwAAAJnCAYAAABCoY3eAAAgAElEQVR4nOzdeXRb1d0v/O8+kmzLkyzJQwY7gx0bqDMASRgSSAMlJC9NSt6WB2hauM+9l96bt6sUuqDts1r6V+nzllu6KDddLavlvespbQhQ2ocCpUwJEIZCBoYEB7DjmAzO4EG2bEeyLens9w9ZsoajWcca/P2slRVbOmf/9pmkn/feZx/R3t4ukSaTyQSPx5Pu6rMqhsVigdPp1DVGsewrHo/ZF4PHI79i8HjkVwwej/yKke7xUHSoCxERERGFYMJFREREpDMmXEREREQ6Y8JFREREpDMmXEREREQ6Y8JFREREpDMmXEREREQ6Y8JFREREpDMmXEREREQ6Y8JFREREpDMmXEREREQ6Y8JFREREpDMmXEREREQ6Y8JFREREpDOjyWTKqIBM12cMxmAMxmAMxmAMxij2GEaPx5NRwEzWn00xABTFdhRLDIDHI59iADwe+RQD4PHIpxgAj0c+xQDSOx7sUiQiIiLSGRMuIiIiIp0x4SIiIiLSGRMuIiIiIp0x4SIiIiLSGRMuIiIiIp0x4SIiIiLSGRMuIiIiIp0x4SIiIiLSGRMuIiIiIp0x4SIiIiLSGRMuIiIiIp0x4SIiIiLSGRMuIiIiIp0x4SIiIiLSGRMuIiIiIp0x4SIiIiLSGRMuIiIiIp0x4SIiIiLSGRMuIiIiIp0x4SIiIiLSGRMuIiIiIp0x4SIiIiLSmVizZo3MdSWIiIiIipnR6XSmvbLJZILH48lidYo3hsViwbp163SNQZSM3bt3w+VyJb18qtfHli1b0qkW0awW77q0WCzI5Ls6GcXyXTtT3+fpHA+jDnWhOA4dOoTJyclcVyNlXq8XRiNPl0JWUlKC5cuXz0gsnudEyZnJ65Jyi58sM2xychLj4+O5rkbK+EVU+KScudEDPM+JkjOT1yXlFgfNExEREemMCRcRERGRzphwEREREemMCRcRERGRzphwEREREemMt+PkKWEEyuoVGK2AwSwAAD63hHcIGO9TIb05riBRFvA8J6LZgglXnhGKQPkigfJmAcUkIt8FFgCVHgHXMQnX5xJS5S3FVHh4nhPRbMOEK48oJoHqiwVKa+P39ComgcoLBEx2FSMfAqqHX0ZUOHieE9FsxIQrTwgluS+hUKW1CqovVuE8iJy3AKjqXKzZfjdW1023VsjPduHXT3+Q1Tj29fdg29oGON5+CDtfP5NaHdtvx11bl6L7mXvxQoeScXmpxEy2fK06FpNCP88DNM93+TFevv8/0KkU33HLVL5eB6pqRsWq5agoj2xlDSddpzB84AR8PLaUASZceaJ8UWpfQgGltQrKF6k4f0z7i0gpAypbFZgsAuOnJVw9KrI9sbFavwm33XENrJ1PYMfvphMs+/p78I31Z3VJZKgwFfJ5HtB20wPYeIGA4+2HsON30+e2ql6Czfd9H7ZHf4F3+/jFXAgUxQ33++/BPfV7IAErNw9h9M1PMRmaYDHZogwx4coDwgiUN0f/hTV6ehxjveGPR5m7uiZqufJmAdcJRA0wLrEK1F1nxPD7Powc9qH+OiOqLlJw9u/ZG4msqnOxZus1sA68hl1PHQz7UBp8/ZfYmbVI02XueD1/y6PYCvk8D2i76QFc39aH/b+PTqoU5QO88O8fgDd/E5EWfjLkgdI6RWPgMGA0G1BmNcHj8sHj8qHMatJcXzEJlNZFH0qlzF+md9T/p77HKSGynmLPga0222VSMSrs89zfzbXxAoGhdx5nCxYRpYwtXHmgxK49fsBsNcFsNWF8yAMAsC6piFvGeFTPnf8LSErAWCEgjAIQ/p8jec+n2/9yFo4BoLm2Ha1zXsBgX+I1Al0yAZHjOqbHbzwEx1r/OBnZvwe7HnkB/cv+VXNsR2CdUMmM/4gcKxLoHrUJ7WMSWtdUY0Yun+qYn0T7Ld8V9nkOXHhRO6T8GPv39KbUvRR53LSOe2AsYfcz9+LoRb8IWz5wTkWWE+sacLz9EP7YvyGpcy2Zczje9TioKAV3Hajtt+O7a/uC9U9V200PYMkn3y/KMZakLyZceUAp1amMkO+bhhuMmj8H9P7Zk15c5Qy6Ovuwuq4Bq+74PhBn/Ip/jMutaB54DY//NPTD+nv4Tm30AHvr2m2wdv5qepxMjA9HtX4TbrvoMHb87LHga203PYDrb/w+ruhPbTyN0vcidv77i9HlT41RCyZbKca0rf0evtu/B4//9F7/dk/ti+uTGPOT6n7LV4V8nqvqJVjSBmCgD4MprLP5vlvRjA689FN/QhEYbB/ruLdsfRB45l7seHr6HGnZ+iDu3OpPLHY8fSZYxqoMz7VUz2Gt67GQroPQRE/274m7bCKBY1KsN7eQPnimFLHx0xK9f/Zgsl/fO7sGX/8lHn/7HIRowOpvPYjv/I9NsKtq1HIX3uz/8nk55C9LpeMxvPSZBNquxRX14etY0YEX9/QmjK/0vYidER+2n+59DUOox6p1KzPYspAxaujAy08dTDtmaIsA4B/v8/yjydUx1f0228zIeT6nAVYAcJxLulXEf9z6cODR6dYbRTmDdx55AsdQj1Vbb4i6TuRnu4Jf4IryAd57x99kLPv3BK8FRTmDd57xnzstX5gfFTfZcy3Vc1jreiyE60Btvx13/vh/4a6tSyE/24UdP/sBfv27F9Nq3QKAzqd/iB0/+wFe+kz6E68f/y98Y/3ctMqi2YUJVx5QJ/KjjEwMvv5LPPzTXeiWEqLuWmz7yYNhH0LBFoLOw1FdB4MDfRCiAba68DKHOj9K60MxUbdgKuqu3YbVdQLH/ha/yyNRTM1tOfsRugcAtC1Dm0aCCqS33/JVMZznyZo+bns0B9cf7QRQ247WOeHrHfvkYNjv/f39AGJfC9baOVGvxT3XbA2afwwBaZ7D2ShDp+vAvv6eYKLlePshf6KVxdbgQOL1+NvnYFv7PSZelBC7FPPA5KCEuSn6A8o95MH44CQ8Lh8AYOjo+ZjjWyYHcz8/UeAurUDTvW3t9/ANTI2vmGohEBd8HXf++OtJlTfU34tk/iYIdr1kIcEKK7d+EzatqQ9rdUg3pta2KMoZOBwA4t10kMZ+y1cFfZ6fPYchwN/KlYyp4zY0cFbz7cGBPqBNn/rEPdfa6mEHMIjsnMP5eh0ExsTpMRdgpMCdzm03PYCNoZ95RBGYcOWBiX4Vqif6ESdetw/jQx6Yyg0AEBxUHEn1SEz050+3ktLxGB7unxr3tGYD2vb8Bz6dei/+B2AarVnqXKzZ7v/Al/IcDkyNA5keP5Oe6a7EPhzYezCsbtmKqapzYbMlt2y291suFPZ5PnVzSNsytKkHC25y08hzLRvncD5fB4Ov/xKP4x5sW+tP0PRMvEIH8RfajSw0s5hw5QHpBVzHJCovCP8iqppXhqp5ZQnXdx2TCR/yO9E3s19USt+L2N95Da4P/BUf+It8qksj3fETUeasQEtt6AdxdsoNdCU63taYAiCNmNa6+QAiP4inptSINxBbr/2WA4V8nk/fHLIUS5YBnR0JVpg6bs21cxB93AF7bT2ADjjOIuv5clLnWjaumzy/DgItT/4W9+wnXky0KFVMuPKE63MJk11NeRbuiQEVrs8Td7MMvOFLt2ppifyr1T9u5VY0tyU/fURGli3z/+WdxqrBrsTAQOVkk5w4Ma1tK2Df0xv+RTG1vCPO2JgZ3286K+TzvH/P49jfdjdW3fivaDscf0zf9HG7FlfUHwxL2uONR8qGdM+10OUy6rjNs+tA6XgMOzoiEq+IwfupCE20eJcipYJnSp6QqsTIhxITA8n/hT4xoGLkQ5nT58up6iW44UcP4Ib28HprDTYP3r10x7+GDY5V22/Hd266JL0KaAy4Ves34bYb29PcnpCuxGdifCCnEVPUXYuv3zx9F1Zg+dC7z2LRZb/lSKGe50DoHYbt2PiTB6POebV+E77xo3uCd8t9+tTU3Yghxy3QDdcccddrNiV1rmXjuimw60DpeAw7fvYDPPzMxwmXTaT7mXux42c/YLJFKTGaTNqzOicr0/VnU4xEVI+E8yBQvkhFeXP0WJfQ5VzHJFyf58OX0Ad4/v6zWLP9F7hza+jkjuew//f3hv1lr/S9iD/efw6b77sVG3/yIDYGls2gmT/wJWgLKdM/keITWJLGGK5Aogj4p7hYHfF+oK6pxnS8/RD2194dNuA3uN0J/srWY7+ler5n8/ooxPM8IPzGEP9cTAGyfw923f+L8CkP7j+LNdvvDj9u/Xuw6/70WleSkcy5lo3rJp0y8uE6UDoew687kPazETuf/iE6dWqriHedFcv34GyOIdrb29P+JDOZTPB40ptIcLbFsFgsWLduHQ4cOIDx8fGEywsjUFavwGgFDGb/F5LPLeEdAsb71IRjWbLN6/XCaGQPdCErLS3F6tWrsXv3brhcrqTXS/X62LJlC8/zHAidaZ7jiQpHMtelxWKB0+nUtR7F8l07U9/n6RyPwvxkmQWkF3CfVoHTua4JkX54nhPRbMEOaCIiIiKdMeEiIiIi0hm7FImIikBg+gMiyk9s4SIiIiLSGRMuIiIiIp0x4SIiIiLSGRMuIiIiIp1x0PwMKykpgZT5MWt2KoxGIwwGQ07roBgFVG/h7bt8UVpaOmOxeJ7nH14/+Wkmr0vKLSZcM2z58uW5rkJBmiw7j4mS86gaqc91VSgJPM/zi9c4gbGqQdQMzct1VYhmLSZcM2j37t25rkLBar6hDiVlRrz/jw54x5N/8DFFS+WxPungeZ5/Gq+2orrejI9f6cKEc4afl0RJ0fu6pNxjwjWD9L6giuU5VZExLE3lMNeWAACqW0tx6r3BjGPw2WT6Sec85/HQL4bZWoLqRWYIIWBrL0f3q2cTrsPjkV8xqDhw0DzlvXmrbMGf65fWwGQuzjE2RHqYt9IGIfwPBre2VMJsLclxjYhmJyZclNcsTeWobDAHfzeYFDQsr8lhjYgKh9laAmtLZfB3IQTmrbTFWYOI9MKEi/JaaOtWAFu5iJIT2roVwFYuotxgwkV5K7J1K4CtXESJRbZuBbCViyg3mHBR3tJq3QpgKxdRfFqtWwFs5SKaeUy4KC/Fat0KYCsXUWyxWrcC2MpFNPOYcFFeite6FcBWLiJt8Vq3AtjKRTSzmHBR3qluNMdt3QpgKxdRtEStWwFs5SKaWUy4KO/MuTT5JIqtXEThkmndCmArF9HMYcJFecXSVI7yuuQf5spWLqJpybZuBbCVi2jmMOGivJLM2K1IbOUi8kuldSuArVxEM8NoMpkyKiDT9RmDMYLlVhgwOeKDY2Qs6j3FpKBmUTmGP3dB9UQ/vLqqoQKjve7U4hXwvmIMxohkMCmQKuDoSuP6qS+Hd0wmjJFtjMEYsymGMZOHbhbLg0Fn6uGjxbAdesbwDHvQvfuMZozSKhNqFi3Cibf7MDGanfiFvK+KLQbA45FpDI8HOLZH+8HU6Vw/xbyvCi0GwOORTzGA9I4HuxSJiIiIdMaEi4iIiEhnxlxXgCgZE6Me7H+kK9fVICpIk2MeHNr5OSbH9O9qISJtTLiIiIqclMja2EciSg+7FKkgGEoUzF9lh6GEpyxRqgwmBbUXVMNg4vVDlCu8+qggGEsNmLfKBmMp59siSpWxzIDF1zTAWMbrhyhXmHARERW5QMuw6pMJliQivTDhIiIqcjWLKuB2TMLj8ua6KkSzFhMuIqIiZ2upgqN7NNfVIJrVmHBRQZCqhJQSlgXlua4KUUGpnl8Os7UEjqNMuIhyiQkXFYTJ8158/kYfFlxVD3trda6rQ1QQDCYFi9c3oO+IE+NOTgtBlEuch4sKxsCnI5A+ibFz47muClFBUEwKRk67cOrdgVxXhWjWYwsXFZTBrlFMjPj/Up+zwory2tIc14go/5TXlsJkNsDj8qLntXPwedRcV4lo1mMLFxUmAVTOKUPTlbUYPn4eZ953wOPyBd/2uH1QvSoUg4CpPPo0N1UYUKqaEi6XbHlay5VUGqHEuCksW3GNRn8MvbZDb6YKAxRFCR6PUD6PCu+4L2w5Lckup8AAj8eTtfK0lgscj1xth6ncgLmX2lCzsAI9r53DwGcjmmUQ0cxjwkWFSQJHXzqD8tpSzF9tx0X/d1PY253P98J5yoXyujJctLUxRiH2JJdLtrziW85sLcH8lbUY63djfHgSbsdkWo+IKakyoqKuDJUNZnhcHpz9aBgAcOHmRpRZS6aWsoet4+geQ/crZzSWQ1rLDR07j6Mvn85aeblaLtF2DB8/j46nT8A1MKG5PhHlhmhvb097JjyTyRT8S0svxRLDYrHA6XTqGqNY9lU6MUzlRigGEfw9UUtOVVUVRkdHdW3hMleXwevVbuLKZguX1+vVbTvKrCVoXFmLEosBZmsphAE4++EQevcNQibxySEEMP8yO+ZcbIXqkRjrG8fw5+fR97E/4Qq00ASORyg9Wobco+NZKy9WC1fkMZ/J7VB9MitzbfHzKr9i8HjkV4x0jwdbuKgoxPqSUX1Ss0WmTPGFvR5ruWTL01pucsyb8MLPNK5qQliMbG/H+NAkjr/RH4xRs7ACi9Y3oHKOGcdePYvJ87G/3EsqjGi+bg7KakrQ9Y8zcJ44H7WM57wPgC/qeMRaLpF4y5lMyS2XSdzI45FpeVrS2Q4iyj0OmieipA0fP48jT58AAMy52BpzOWOZAe3/sgAAcOTpE5rJFhHRbMIWLiJKyeR5Lz579hSEImIu4x33oee1c3CeOJ9U1yMRUbFjCxcRpUxKf7ekqdyIxdc0wGDyf5TYW6tRZvH3eQ0fZ7JFRBTAhIuI0qZ6VFTPK0fjFbWovbAai69tQEV9Wa6rRUSUd9ilSERp83lUfP7GObR9eT4kqnHirT4MdvGZfUREkdjCRUQZGel1Q/VJCCHgPOHKdXWIiPKS0WQyJV4qjkzXZwzGYIzCjzE56kWZ1QSj0Qg1zerkw3YwBmMwBmPoFcOYyQRhxTKJ2UzEAOLPz5MNxbKveDwKL4Z7aBJlVpN/EtY065MP28EY04phO4olBsDjkU8xgPSOB7sUiShj404+RoaIKB4OmieijI2ccqOi1gXvBGc9JyLSwoSLiDI20uvCSC8HzBMRxcIuRSIiIiKdMeEiooxVzTFj9fZWVM0x57oqRER5iQkXERERkc6YcBERERHpjAkXERERkc6YcBERERHpjAkXERERkc6YcBERERHpjAkXEWVsYsyD0dNuTIzp/wwzIqJCxJnmiShjk2NefPrsqVxXg4gob7GFi4iIiEhnTLiIKGOcaZ6IKD4mXEREREQ6Y8JFREREpDMmXEREREQ6Y8JFREREpDMmXEREREQ6Y8JFREREpDNOfEoUx5YtW3JdhYLgUzxwTpzB1Zd/EQbVlOvqFITdu3fD5XLluhpENEOYcBElcPjwYUxMTOS6GmmRUkIIMYMR+2YwVuGRUqKsrAzLli3LdVWIaIYZLRZLruswa3Bf55dkj8fExATGx8d1rg3NBlJKTE5OBn/P58+EfK7bbMTjkV/SOR5Gp9OZdkCTyQSPR9+H1RZLDIvFgkz2dTKKZV8Vy/EgSiSdc7BYro9i+Szh8Zh9MdI9Hhw0T0RERKQzJlxEREREOmPCRURERKQzJlxEREREOmPCRURERKQzzsNFlG1CACVlEEYTJATgnQQmxwEpc10zIiLKESZcRFkkqqwQl98AGP2zrQenHPV6gP5TkMcOQY4O5ax+RESUG0y4iDIkhPDP6H7ZJgjbHO2FjCZg7mKIuYshX/yP4DpERDQ7MOEiylDLRUtx9MjhlNc59tkRqD6fTrVKTK3fhNvuuAY2jUf/yP492PXICxhUim+Yp2puhPXS+TBpbbfrFIYPnICvCLebiHKLCRdRhixWe1rrLL3kMhw68E/N95UyoLJVQYldgfuEClePqtsQMMfbD2Hn62c0KlHcSYfnxEdwnnBHv1Hk201EucFPFqIMVNdYY74nfV6o466Yg+UbF7egylKj+V7tOiOqLjDAUA7UrDSgerkhK/UlIqLcYMJFlCZFUXDlNRujXh96/Rk4XvkzxjsPwTNwBqMfv4uh1/8TPtdo2HJCCKy5dlPU+mVzFZgsAgN7vTj3gheuz1WUL4ru/iIiosLBLkWiNFmsdhhNpqjXpceHqiuvh6nS/zT50sYWSK8Xwhh9uWmtD/hbxKQEhAIIowAEYKyITrp8bgmpZrYdidjX34NtaxvQ/cy9OHrRL7Dxgul6dD9zL17omP67re2mB3B9Wx8OPPoLvNs3/XpgvBje+VWw+zKZcttueiBuvETU9tvx3bV9aY9Ha7vpASz55PspxSQi0sKEiyhNZeUVUa9JrxfmpuZgshWglWzFFJJXGasFzI3+FxpuiC6j7xUvPMMzc7djy9YHgWfuxY6nFajqXKzZfjdW3fh9XNEfnlxlVu4l2HzfrWjZ+iDu3OofX7bj6TMpx1Pbb8ddW5cC8N8AkIlAXVJN9oiIQjHhIkpTSUlJ1GvqpBuKuTKjcn2jwEiHD6oLEFoNYFlmW/s93Lk2/DWt5EJ+tiv4mqKcwTvPvIaWO67BqnUr8e7TH6QdP7zcD/DeO9eiZW0DZP8evLinF1CUsHgtX5iPd/s0BvkjItH6bBd+HaiXRuuWacEK1C4If23i03cwOjC9bOfTP0Qn/C1dG0OSQM2bDIiI4mDCRZSmkeHoCUwN5VVwdr4IpaYWJsv0gHqP4xxMtoakyvWMSniO+FutTDX6j93STiCiE5RjnxwMf/3sOQwBiH3bQHIiy+3v7wfQgKHOjzS7Aa21cwCE1zfQPQkknxBp36Wo3YIVSLz8cfwJKhMvIkoFEy6iNDmHBuH1eKJeFyYTRve9irJ5i2GwWDF59iS8g30ov/hKlDY0hS2rtX7BsTXArqr6z9kVI8ELJFthLVo6GXz9l9jx+lSL19rv4Rtg0kVEyWHCRZQmVVXRd6YXiiF8ygbLlZtw/tODGD/dA3HqGGAuR9lFl6C0vjGqjL4zvTNV3aI1+Pov8Tjuwba1X8edP/66rolX6CB+tnARUSqYcBFloPvTj9HaviLsNaW0DFUr1kKVEphwQykr11xXSonuTz+eiWoWvUDLk38MV/YTLyZaRJQpJlxEGRgZHoJzaFDzPUUIIEay5RwaxAfvvpnw0T6eYYnePxdOt+PgQB/EBQ2w1QHom3697gvtsAkBh87xlY7HsKMjIvHK4DFFoYkW71Ikokww4SLKUPcnqbdSdX/ycVE+vLr/SAcca+rRvPYG2A/7kxy1fhM2ramf0XqEJl7fXZt4+XimEy0mW0SUPiZcRBkKJk79pyCscyDj3FgoZMQ6eUBrWggpP8bL9/8HOlNsFVL6XsQfHwVuu+MabPvJtf6y+vdg16OvYdMd12SrysnXp+Mx/LoDSU8LIaUDo29+ismp5f13JzLRIqLMifb29rQ/+U0mEzw632VVLDEsFgucTqeuMYplX+XT8diyZQsOHDiA8fHxpMoVVVaIy28AjBETaHk9QP8pyGOHIEejp5Og2UFKCUVRsHbtWuzevRsulyvlMvLp+shEsXyW8HjMvhjpHg+jSfPRIsnLdH3GYIxiiiFHhyBf3Zn1cqk4pXsOFur1wRiMMZtjGDPJBIslW52JGACKYjuKJQag//EgSiSdc7BYro9i+Szh8Zh9MYD0jgcHJxARERHpjAkXERERkc6YcBERERHpjAkXERERkc6YcBERERHpjAkXERERkc6YcBERERHpjI/2IUqgsbERZrM519WgIjA6Oorjx4/nuhpElANMuIgS6Pn8OM6fP5/ralAR8Pl8qKwoz3U1iCgHmHARJWAwGlFWXpHralAR8PLpBkSzFsdwEREREemMCRcRERGRzphwEWWgqroaa9ZvwM233wGzmWNziIhIG8dwEaXptv/5XQghgr/Pqa1Am+U8mmslTIbwZT0+4KkDCgbHZriSRESUF5hwEaWhqro6LNkCgM2t5xDxUpDJAGy7TMWRMwJ7OwGPL8aCRERUlNilSJSGZZdeHva79E7ETLYChADa50l8bSVQXqJj5YiIKO8w4SJKw/wFC4M/S+8Eqs7+DV7z/KTWra+S+MrFUq+qERFRHmKXIlEaXvjPp1BvKcHmtj4IAXjL5mGs6RaY+99A6fD7AIDHXu1DfY0JUgIXt1Rgrm26Wau+SsJeKZIa0zXP5MW36obg9CkoU1SUCuD3/Vac9uT+8lWlDZeuuBnt7lexs+soAGBh63ZcZT6Iv3+0D8OJmv2SpEeZWlZeMIxvmkvxiw/KcFrHOEQ0+7CFiygN50dH0GbpD3YjGsdPw9z/BiarL4IURkgJLGooxaZVVvxfq61hyVbAqoXJtXJdaB4HAPzqnB0Pn6sNey3fqNIGa4E+BUmVPswt0LoTUf7L/Z/IRAVqUW14wlQ6/D5KnYegCiO8Pg8s5fEvr0W1EooQUBPkXZWKignpz+zcqsCEFKhU1IzqrhdFOPDhoUfwIYCEg9ryjCIMeP7DGjwPAClUXZUefOvK80CXBf/fYGFtMxHNHLZwEaWpVCufkl4o6jggJTxeibFxFa5x7eSo1Ag0VMfOtgwCqDH6UKr4v/9rjD7UGH0QAEoV//tERFQY2MJFlGUn+yfQ5/TAMepB92k3Sk0CFzZpT4paWwmccWqXU2f0Ynu9I/j73Q2DwZ/bzeN4c7QcZ1Mcx6WaV+PGZSthCWl9OtH1G+x1TP8eGC/11mAzrm60QboPBMdOqbaNuL21ObisdBxAR0SM0PFWDtiDY7z+7lqJzY02/3ryGN5670Ucn6pHYCzYUrPQfH+mhI7hOgUVX7lkFF9yV+AX58fxgyZ1qm5G/Omf5TgoBOY1jk69LoC2EfwKwNmTlfj5KUPcOEQ0+zDhIsqyprpSNNSY8Inixorm+A+9Hp/BZxkHkqUTXb/Bc1MJlj8B+3+wpfcpPNc7ndwJ8ypcVf4K/vTe0akXRNj6gQRtYet2XG0WkO74sYVtA652PcEdCysAACAASURBVIk/veeAKpdg/eXX4aq2VhyfGmhva1wNdP0Wf3KLYPJ11YrL4NR5kHwyhM2F289X4u5/GoLdh9+80IuDn5lw+lQVvnuSXYpElJjRZDJlVECm6zMGYxRzjETGJmYmjiqXYP2SxXCeejKsNUtx78ebvc348vzVWHhqukVJymN4q7MrOA4r1vo9nU/BuuJmtCeIL90H8OapQUAIKOIoDvWuRNP8FiyUXTguBIZ7X8KHUwOnFOHA+6d60L7EBguA4azuidRJdwkeO+nv11WECf84ZcDSxkmslEYczDAZTPccLJbrgzEYYzbFMHo86f+JbTKZkMn6sykGgKLYjmKJAWR+PCa8McZxpbD+uZEZahEpt8ICwOkeROSIcId7GEANrOXA8UBL1bgDziTXT4p7KGFL1cLW7bjaNr2MlMdSj6MHt1G3KSLSOQcL5fpIpFg+S3g8Zl8MIL3jwS5FojQ9fVDBtsvUtG/Ge/qgkvAOxdkg0MXYhB68+a6/lU21bcRtS3JdMyKi7GHCRZSmwTHgyBmB9nnRWZNQBCrN8W8CTjTp6aQU6JmI/QygSZlCpucaghOAxWwH4Ah7y2auATCMIRdiN17FXN+G6jIACcZwxWVvQROG0HF4ukszUCciomLBhIsoA290CtRV+WeOD2UyCLTEmUWzbzRxsuTwGvCHgZqM6wggOG5qc+MtWOeeHvSu2jZic6MNJ7qeiHtHoCKO4vjQdbhq/gZc7HgCH7r9yy5uuw4LhECmDXVC2FBtBuD2D+S/er4VhZZw1ZlVALw7kYi0MeEiyoDXBzz7ocBXLo5OumLpGxV49sOZv5ttuPdJPObeiNtbv41vTr0mpQMfH/pNMIGK53jXI0Drdly9/NtYOvXaia4n8bE58aD5eBTHS3j+1C3YPFUv6T6Avx/twZcLpEtRESb8vsuE/902hl81cVoIItIm2tvb0/7jtFgGwM1EDIvFAqczxoRLWVIs+yqfjseWLVuw78BBTHq8CZe1VwKrFkk010qYIr5vPT7gqQNKUs9OpOLl9XhgMgisXbsWu3fvhsvlSrmMfLo+MlEsnyU8HrMvRrrHgy1cRFkyOAa89LGAIgQaqiVqygGfKjA6LnFuJPEjfIiIqHgx4SLKMlUCZ5wiZAZ5ToZJRDTb8VmKRERERDpjwkVERESkMyZcRERERDpjwkVERESkMyZcRERERDpjwkVERESkMyZcRERERDpjwkVERESkMyZcRBmoqq7GmvUbcPPtd8BsLs91dYiIKE9xpnmiNC1sXoK111wPo8kEAJgzvxE9RzuhCPDRPkREFIYJF1Ga1m24AUKEPLZnYggbl0Y+vNqfZXl8kg+vJiKaxZhwEaWhqro6PNkCsLn1HESMxyaaDMC2y1QcOSOwtxPw+Ph8RSKi2YQJF1EaNm29Ofiz9E6g6uzf4CufD6O7N+Y6QgDt8yTa5wF9o8AT+5h0ERHNFhw0T5SGiXG3///hk7Cc2gmj+zRcc78MKab/hjnYNYZXDg5hz4fDOOOYDFu/viq1AV3NpZP4L7XD2GodQXPpZOIVKCltX70f37ljA+ySA+yISF9s4SJKw+5/PId6Swk2t/VBCMBbNg+qoQKTluUoHX4fANBx3IX6GhO8Hu0vc3slkhrTNc/kxW12J5w+BXNNHqwwT+D3/Vac9sy+y1f9wjbc9ZX24O9y4HXs+v3LGIzVlxuvLDkHNls2a0dEFNvs+8QmyoLzoyNoWyCDY7aM46dh7n8Dk9UXocR5CFC9WNRQinXLLDHLWLVQ4qWOxInCheZxAMCvztlhViR+MGcAF5rHcdpTmZVtKRT2dXfh61f246X/90fonNrx6he24bYvzsXOvWf9v8vl2PxvNwPP/RgvHIm/bxVxFu8+eh/eBRBz8B0RUZYYTVO3tKcr0/UZgzEKNcYFc8JbrkqH3w+2bk16VZSXGDA2rkIBUF4W3Xt/wRyJQ6eAM07tL3uDAKoMPtiNKialQI3R5y9bCtiNKgwC8M2SnjBVLsflV9Zh6J9PBpMtAFCOPI6dOaxXptI9Bwvh+mAMxmCMcEaPx5NRwEzWn00xABTFdhRLDEC/4/F2xyi6T/vHeB054UJ1hRFb12j3XVWWxi6nzujF9npH8Pe7GwaDP7ebx/HmaDnOJtmtqEobLl1xM9rdr+LvrpXY3Oivj5TH8NZ7L+J4oMVoarmlZqH5/sLW7bgKEWW4D+DvH+0DGm+NWS4AqObVuHHZSlimXgusN5xC65K1th7AWc337OvuwrY19f5fvvLvuPMrgOOdHdi59yzavno/rre9gZc7v4CNa+qDXZH2r/0M19vewK7fv4x+zMWab30HqxxPYdfANcGypOzAyz/fGZboRXZtOt55Et1tN2OV4yn8+q+Hkt6edM7BQr8+Aorls4THY/bFANI7HuxSJMqyBfUlKCsVGBz2oMFWglJT7ISiTP8/xMII2wZc7XoSf3rPAVUuwfrLr8NVba043nUUAGBrXA10/RZ/cotg8nXVisvgDEmMwsqYSqI2X7EK0vEK/vTeUc1yVdtG3LakBh2Hf4vnQsr+8goklXQp4hCOdt2MlrZb8J2vQjOpGdz7MB5+I3aXoqhdj+sdT2LHz6fWFQJ2rX3Udgs2DezAjp+fDXZRXv+1FeicihlI7Lqf/VEwRttX78fGWgHp0CiQiAi8S5Eo65rqSrFsYTkabCVY0VyBC5tiP/JnXP8/xMJI9wG8ecrfUqaIozjUOwRYW7Bw6i694d6X8KFbTL3vwPuneoAyGyyxynDvx6GhqRatzq5guceHAJitqJHSn1w1LsbJo0+El911ECNlzViU5BOROv96Hx5/pw+i7Rbc+W8/w3e+ujy1bZcdePkvHyVebuB1vPjGmal6HsJ7/+wHWpeiTcpg16bjnR1hCd2nf/k19g/Mkv5dIkoLW7iI0jThBUozuIImvEB3/wwP1nYPJWxNWti6HVfbppeR8ljiMsYdcIb86nQNAeapX8pb0FQGWFq/jW9qxHOaAbiTq/7g3oexY+9Ui1LbLfjOD6/Bgf/zK7ybzH4c7Mdg4qUAx7nYdz3WN8AKYGjgDAAOtCei5DHhIkrT5wMiauB8quvn0/MVA12BTejBm+/6x1/5uwKzU/6Jrt9gr0MrSUk9cen86334VM7xj7n6b9+AI2KMFRFRvmGXIlGaDhwXyGS+zAPH8yxBsLegCUPoODw92N1mrsm8XNcQnAAsZq0RU+lTxFm8886RrJaZUN85DAGw1s6NeKMetuxuHhEVGSZcRGkaHAOOnNFOmoQiUGmOf3klmvR0Ugr0TJTE/Dcps5+wCWFD9VRXoGpejavnWzMuMzBWzNJ4C9bZpjNU1bwaW1qTaz5T5XLc8MO7cEVdyPpyDtas+QLQ9XFU61Z0QpQd/sH7gPXKW8LqcuHXbkYLW9iIKA52KRJlYPcnAv/sFvjKxTLscT0mg0DLXLPmOn2jAs9+mPjL2eE14A8DWWhhSpLieAnPn7oFm6fGWkn3Afz9aA++nIUuxeHeJ/E8pstGoPyPupKadFQRh/D8z4HN//Yz3BmyvOOdHfj13rPhyz23FHd95U7cuWZ6Wohs6vzrfcBX78fG//7vWD31WvezO7Df9h2symokIiomor29Pe1OkWKZU2MmYlgsFjidzsQLZqBY9lU+HY8tW7Zg34GDmPR44y5nMkhs/6KMmztI6W8R29sJeHxsDSkmamA8WYJ5uLweD0wGgbVr12L37t1wuVwpx8qn6yMTxfJZwuMx+2KkezzYpUiUBR6fwOP7FHx2TsDj03ofeHyfgt2fCCZbxah+GVrswLFPE087QUSzE7sUibJkcAx46WMBRQg0VEvUlAM+VWB0XOLcSH7dkUjps6+7C5vwZPjzG//bF2EdfAMvdoCzRRCRJiZcRFmmSv/zEc8EW5z5DVxMBvc+jP1fvR93/lvIXGWdT/q7EjlwnohiYMJFRJSizr/eh85cV4KICgrHcBERERHpjAkXERERkc6YcBERERHpjAkXERERkc44aJ4oAXNpCTwT47muBhUBk0Gguro619UgohxgwkWUwLJly3JdhQIg4DHZYPIM5roiRER5iQkXURy7d+/OdRUKQuWSa1F1wWqcefH7ua5KwUjnsT5EVLiYcBHFkcmXYrE8NyxRDCEUNF5yG0rtzYClBa4zh1OOwWfFEVGx46B5IspIdduX/MkWgPorv5Xj2hAR5ScmXESUNiEUNFxxR/D3qkVXonwux7wREUViwkVEaQtt3QpgKxcRUTSxZs0ametKEFHhEULB3K/+HsaahVHvnX32Tkz2f5KDWhER5SdjJgNVi2UQ6kzE4KDg/IrB45F5DMsFGzSTLQCoWL4N/X/9btIxeDzyKwaPR37F4PHIrxjpHg92KRJRyiLHbkXiWC4ionBMuIgoZVpjtyJxLBcR0TQmXESUkkStWwFs5SIimsaEi4hSkkzrVgBbuYiI/JhwEVHSkm3dCmArFxGRHxMuIkpaKq1bAWzlIiJiwkVESUq1dSuArVxERHx4NRElSSmtRP/+P2q+ZzTXYM4X78LZNx6G1z0cvYBUda4dEVF+Y8JFREnxjY9g6Mjzmu+VWOZhzhfvgvPoHkw6T89wzYiI8h+7FImIiIh0xoSLiIiISGdMuIiIiIh0xoSLiIiISGdMuIiIiIh0xoSLiIiISGdMuIiIiIh0xoSLiIiISGdMuIiIiIh0xoSLiIiISGdMuIiIiIh0xoSLiIiISGdMuIiIiIh0xoSLiIiISGdGk8mUUQGZrs8YjMEYhR/DaDQG/5dp1icftoMxGIMxGEOvGEaPx5NRwEzWn00xABTFdhRLDIDHI5sxhNcLAPB6vWnXJx+2gzGmFcN2FEsMgMcjn2IA6R0PdikSERER6YwJFxEREZHOmHARERER6YwJFxEREZHOmHARERER6YwJFxEREZHOmHARERER6YwJFxEREZHOmHARERER6YwJFxEREZHOmHARERER6YwJFxEREZHOmHARERER6YwJFxEREZHOmHARERER6YwJFxEREZHOmHARERER6YwJFxEREZHOmHARERER6YwJFxEREZHOmHARERER6YwJFxEREZHOmHARERER6cxoMpkyKiDT9RmDMRij8GMYjcbg/zLN+uTDdjAGYzAGY+gVw+jxeDIKmMn6sykGgKLYjmKJAfB4ZDOG8HoBAF6vN+365MN2MMa0YtiOYokB8HjkUwwgvePBLkUiIiIinTHhIiIiItIZEy4iIiIinTHhIiIiItIZEy4iyphvfAR9//w9fOMjua4KEVFeMua6AkTZ8IctpSmuMQ4g1XXSMVtieAD8Abg+mWW18HhkI8Y9uycx4JIzEJ+IUsWEi4rGI4eN6HeLxAsKA2QSi+UjIVGwdSd9CNWHhWY3bl/Gj3OifMYrlIpGv1tgcFL/Ce+I8osCg+d8ritBRAlwDBcRERGRzphwEREREemMCRcRERGRzphwEREREemMCRcRERGRzphwEREREemM00IQJaIoQHUthLkSMBggx5zAyACgqrmuGRERFQgmXETxVFmhXLEZME7P7yUAwOsB+k9C7f4IGB3KWfWIiKgwMOEiilRqhli5AcJSG3sZowmY2wxlbjOkcwDy4CvAhHvm6khERAWFCRdRhITJVuTyllpg5QbI914AfF4daxaf2n477tq6NOp1Kc/hwKO/wLt9HLIZj339Pdi2tgGOtx/CztfP5Lo6RFRkmHARRUgl2Qpb5wtXQB5+S/N9pQyobFVQYlfgPqHC1aNC6vSM4ciEoe2mB7DxWw+ihYkEAP/+uL6tAy/f/x/oVJiEEtHMYMJFFKrKGvWSb8wJ1TMR9ppiKoWh0hL2mpjfCvl5h+aYrtp1RpiqBbwuiZqVBhirBJwf+bJb9xg+fepXsG2/G6vWbEDbntmdZKjqXNhs2u8Nvv5L7Hh9ZutDRLPH7P3kJYqkKFCu+HLUy+6eTzB68A2o7vPBf9IzGb2+EJrrl81VYLIIDOz14twLXrg+V1G+SOixBZoU5Qy6OvsA1ME2Z8bCEhFRCLZwEU0RllrAWBLjTYHSeYsTF6K5vr/vUEpAKIAwCkAAxoropMvnlpA6zDZhr60H0Bf8PTDeq/uZh+BYezdW1wnI/j3Y9cgLGJxqAWu76QFsvGC6jlJ+HNUNFyjH8fZD+GP/hrAxZFrLh64TqvuZe/FCR/Tff1F16N+DXW/XY9vWpVHrJCo3MEbLbyk2/uRBbMR0F+z0PomuSzL7IlB+9zP34uhFvwhbPtb2EdHswYSLKKCsIvZ7UsIzNJWwKAaYLPbkyw3Jq4zVAuZG/wsNN0Rffn2veOEZzu7grmA32kAHus4irF3bunYbrJ2/wo7fTY3tUhSo6iXYfN+taEYHXvqpP6lQ1blYs/1uXH/f92HTGIBvW/s9fLd/Dx7/6b0YDCkjcnm1fhNuu+gwdvzsseC6bTc9gOtv/D6u6A9Zbireqto+7P/99OttNz2AbVujE9Vkyh18/Zd4eE+g3OTGcKWzL1q2Pgg8cy92PD297KqI7SOi2cdoMpkSLxVHpuszBmPkKkZ00NKYb0mfFyP7dgMADBXVqLkquuswFt8oMNLhg+oCxAxvVmjicuDR6darACs6sGtPr39y1ykX3nwrmtGHA49OJySKcgbvPPIEbPfdilVbb0DXI+FlRbaOKcoHeP7RBtx2xzVYtW4l3n36A//rfS9i59Phdfx072tY3Ra+XN2127C6TqD7mfAkpfPpHwIRrU2plJuqtPbFZ7uCrVmKcgbvPPMaWu7IrB6pysb1UyzXOWMwRr7EMHo8nowCZrL+bIoBoCi2I39jxE6WkjbqiPmWMJpg+9JNaRXrGZXwHPG3Wplq9B+7ZVv7Pdy5dvp32b8Hu+6PTrYAYKjzo7DXVfUSLGkD0LknqjVGUT7A0c5b0dzWjtY5L2CwL3Y5AICzH6F74BqssjXArqqa8dX6TbjtjmtgEwKBdj1VnYvWtnrI/j147zCiRpoODvQBFzREFpWw3FSluy+OfXIwvNJnz2EIQPTtGPrJxjWan9f57IwB8HjkUwwgvePBLkWiKdI5AOGd1B6HJSUmTvcEfzWYK2G01kUv59UYTD/DNOeRitF1NtTfi7DkYE4DrACGBs5qLj840Ae0JVEO/K07DgeAtnrYAQxiuouuRcRLPOfAVgug85xmktbf3w8gPOFKrtwUpbkvYoqTeBJR8WPCRRSgqpB9JyHmtUS9JX1ejB1+N/h76bzFqNRIuGTfSV2rWEgip2Dwd2/6k6LQyVinx0mlH0ePcomIsokJF1EIeexQVMJVceGlKG9dFvaaMGj030sJeeyQntXT31T3V3PtHADRk6T673bsgCNy8H3dfI3lp1qqBvowCABzVqCl1j/G6ddPf4CEs9LEaBGqq4tIdFMtN1lp7gsiIi38mCAKNToE6RwIe0mYSqCUVYT9E6bwbkfpHID6yh8TPsjaMyzR+2dPzH/ZvkMxVf6xSQDarsUV9eHzU0yPaTocdXeftW0F7GrEfBbLlqFFCO3xXRrLRdWhth2tEfOGBcZ3JSWi3FSluy+IiLTwk4Iogjz4SlTSFXf5wMOrc/gcxWz69KkncAz1WHXHv6JtKokKdNs1owMvP3Uwah1Rdy2+fvPK4O9q/SbcdmM7ZP8evLin1//i2Y/QPQCgbdl0uVPLJV8H/5xhYVIoNzAJrBBLsWRZ1NtZ2RdERFrYpUgUacLtfxD1F66AmN8KxGslkTLnD63ONkX5AM/ffxZrtt8dnBwUiH+3o+Pth7C/9m7c+eOvB18LdvFpTKcQKNc/gegTWBIx1spfB2BzyLKBOA+/HT7BairlAkD/nsexv+1urN76IO7cGuMmgwz2BRGRFtHe3p52H0ax3OI5EzEsFgucTqeuMYplX6UT4w9bSvHTfSYMTmZ5/pUqK5QrNgPGiHK9HqD/JNTujxJ2Ixaz0JnmZ+rB2Pb19+DraxAcHE9AvRjGj9aW4J7dkxhwZd4tzc+r/IrB45FfMdI9HmzhIopndMg/NovyQnAM18BrUbPmExHlM35cEVHeUdtvx3f+x6awgfhhs+Y/w+48IiosbOEioryjdDyG/43bcddPHgx7XX62C7/+XRanfiAimiFMuIgobUrHY9jRUXhlExHNNP6ZSERERKQzJlxEREREOmPCRURERKQzJlxEREREOmPCRURERKQz3qVIReP6BSrs5vFcV4Noxj31ca5rQESJMOGiovHy5xK959loS7PPgrJc14CIEmHCRcXDWIqy8pJc14Jo5qmuXNeAiBJgcwARERGRzphwEREREemMCRfNClXV1VizfgNuvv0OmM3lua4OERHNMhzDRUXvtv/5XQghgr/Pqa1Am+U8mmslTIbwZT0+4KkDCgbHZriSRERU1IwWiyXXdZg1uK/1pD0dRFV1dViyBQCbW88h4qUgkwHYdpmKI2cE9nYCHl+MBYnyWDY+a/h5lV94PPJLOsfD6HQ60w5oMpng8XjSXn82xbBYLMhkXyejWPZVejFKNV9ddunlYb9L70TMZCtACKB9nkRdlcCzHwKuyRSrQpRjmX7W8PMqv2LweORXjHSPB8dwUVGbv2Bh8GfpnUDV2b/Ba56f1Lr1VRJfuVjqVTUiIppFOIaLitoL//kU6i0l2NzWByEAb9k8jDXdAnP/Gygdfh8A8NirfaivMUFK4OKWCsy1Tc/lVV8lYa8UMcd01V8nIIyAYhBQyiTGugDnISZpREQUjgkXFbXzoyNoWyCD3YjG8dMw97+ByeqLUOI8BKheLGooxbplsfvjVy2UeKkjuh+ypAYwWYDev0gAEvXXCpjnA85D2au/Kpdg/eXXYYEQONH1G+x1hNdDtW3EbUtq0HH4CXzoFiHr2XDpipux1Dz9mpTH8NZ7L+L41M4ILVtL5PLxLGzdjqtt08s5Tz2J53od/jjm1bhx2Uo4j/42uv7m1bhxWTNOTtU/Vp1Ctz2ZZVLZD7GWAwDpPoC/f7QPwyJ23SLL7UGr5nKBshyx3ne8gp1dRzXLJqLCx4SLit6i2vAWp9Lh91HqPARVGOH1eWApj38ZLKqVUISAGtFwpZSFf2F6RoCyuVmp8jR7S/CLucneCjjCv5AX2xcD4wfxuQvAVHUCyc+Jrt/gTyEJyMLW7bjq8lthnUpuFHEUe/f5ywskE4hMihIkW6ptI25vbfbH6gpJiFa0oObUIIaFgM3WjGr04NDgdB0DbLZmVI8fm66/vQVNGMLHh6YTyIWt23HVkltxcSCpTGaZFPYDAKC8BU1l4WX6t20Vrm7sxnO9juT3ly26foneD5T3jctakk5yiaiwcAwXFb1SrXxKeqGo44CU8HglxsZVuMbVmOs3VGt0Ewr/a0IBjBWAMAAQ/p9D/4kMrrLF9sWQbgecUgLWFiyU0/VQ5RIstAIjg90YFiGJh/kgnn83urWnp/NVnIQVTTZ7dCB7C5rQg+ODyddNlUuwfsniqJYlRRzF3kP7p1qFbFhktwJD3VFJROC90Pr7E8ipBCxQ78GeqH2SaJlU90NY4hcw2I0TUsLp1tgpcfaXVv0Sva+Io3j9vVdxEouxvFHj+BBRwWPCRbPWyf4JHD7ugmPUg+7Tbpzo155aAgBqK6Nf840CI0ckjNVAwyYBcyOgmPw/h/4zVqdXv+mE6hUcGgKAGlhD52ydauk56fB/69fMvwVXWXvw1lQXWDQHRmJs4mL7Ys2kKB5b40o0YQgj7jgLlbegqQw4OdgV473p+mslkABgM9cAGMaQK7llUt0PWonf9PbFSao0k0jt+kW+f/KUVt1iHx8iKnxMuGjWaqorxbKF5WiwlWBFcwUubIo9A/24xl3GnjFg9BMdKxiSUPUM9kAIW1irTGhLiSqXYPl8K0Z698dJmmyoLot+NZgEaCVFcTjcwxDChvbWy1AjtW8UCHQnaiUtUa1KEQlkoG5h25VgmR60pr4fIhI/wJ+0fXk+0HE4unsv7v7SqF/0+7FaErWPDxEVB47hollDNVbCXXcNKs48l/K6YxM6VCiBsPFZrm6cWLIYTXb/2CgHWv0tKb1TLSk2/xf5W6cGY4+7mkoGOhwRg6mmkoC3NMZYxaM4XsKbju242rYKm69YFTZQHkBId+LBFLoTp8ejBcY1WXqfCpabcBn76pT3w+LGlbAIAcvyb2Pp1CLOU09i5z6H9g6Js78W2xdDCIGlIWWFDrz3t4y9qp0Mxjo+RFQUmHBR0ZvwAqaySozN/xeoJTWQBjOEL14/WPT650Zm9gsw2DU1lVApOIrjQ9ehydqMReX74DBHJA1TiUi8qfgCX/aRA7njJgEJHO96BD1TdyFaGm/BN+zTyUWg5aijqwtRCURYq5IIbq8Q/uQNCNz199uwuyoTLZPqfgiUGUgWA3dUxhNrf0WWFUZMxzp5VGN/IPbxIaLiwISLit5A439FRVUNAECZdMDZvB2GiX5U9v4F8JxPuP7TB5WoOxR1p9Ha0TPYg6ttzWiy2TFUPt3So8IGqxmAeyjGmCX/HXdXWYfQcTj8y141r8byOElAMhT3fjy3b79/oPpUQvihO9Cd6B9XFdUS1LgS1aF3V061Gr35bkQXnohuiYu1jCrT2A8R+1lx78ehoZW4yj59l2XY+vH2V6IWqjgtY7GODxEVD47hoqJWXlEZTLZKh99H9fHHAAC+0jqMNd4ElJSj0hz/Mkj0IGvpFZjoR8x/0pv6F6jmnW5Td81V2zdgecjAbEU4MOQGYLZqjqVSzatx45LFOHk0epqCeGOsUuV0DYXV2VJuBcYdUa1N/qRlCB1d+8K7ExMM2k+0TDr7QWs/O11DQFkzFmkM6Yu3v5K6O1FroH2c40NExYMJFxW1q760EQAwcO4MRo/tBSBhmPR39/hKauGZswEtc80x1+8bTfwF6B2TGNgb+593LLXmsVh3siniKI4PAcJsQ3XEwOyewR4I8ypcdLQs6wAAIABJREFUHTGlQM38W3D78lXak47GmbIhnpr5t+AbrUvCy7JtxOZGW1idna4hCPMqLA+p0vQkqOFzUCUatJ/swP5U9kOsOwoDNwNUR5wW8ae4SPLuxIj6L2zdjtuWNePk4ejjQ0TFhV2KVNTefWM3tn79v6C2YS6OnL4SGP0nSkpsAACDZwjm/tdirts3KvDshzn4EozT9RToVkToZKHwD2B/rGsjbm+9Bd9snF7eeepJ/Om9GIO/A1M2nEqtG8tx6hV0rLgZ37x8Q/A16XgFf3rvpbByhnufxJvl23F167fxzcByEWOuEm1vSssgxf0QqwtwMHCDQsREs/H2V2CC2sbwuMHZ5QPvh+wLwD87/s4uEX+jiKgoiPb29rRHpxTLk7/z+eniqSiWfZVOjD9sKcVPD5gx6CmJeq/aUoPrv/I1lFf4J9M6PzoE16d/waKqUZgM4ct6fMBTB5SE3YhE+aRe7ceP1pbgnt2TGHBlPuCQn1f5FYPHI79ipHs82MJFRW/EOYyXn/1LMOn6xzN/hev8eShCQUO1RE054FMFRsclzo1EP8KHiIgoU0y4aFYIJF1XfPFLcJ33N1+pEjjjFDgT/EOF3TpERKQPJlw0awSSLtIWGNBu0Rj0rTm3FBERJY0JFxEBmJ5Pi4iIso/TQhARERHpjAkXERERkc6YcBERERHpjAkXERERkc6YcBERERHpzGgymTIqINP1GYMxchWDqFhl4/opluucMRgjX2IYM5kCv1im6Z+JGACKYjvyN0Zp3Herqqux7NLL0bhgIZ778+Nwu13pV5Aoz2XjGs3P63x2xgB4PPIpBpDe8eA8XFT0FjYvwdprrodx6i+SOfMb0XO0E4oAH+1DREQzggkXFb11G26ACJ09fWIIG5dKNNfKkIdX+7Msj0/y4dVERJR1TLioqFVVV4cnWwA2t56DxtNrAAAmA7DtMhVHzgjs7QQ8Pj5fkYiIMseEi4rapq03B3+W3glUnf0bfOXzYXT3xlxHCKB9nkT7PKBvFHhiH5MuIiLKDBMuKmoT426YyyswMXwSdcOvQPGMYKT5W6jq+T8Q0gsAONg1BseIBwaDwEULyjHXVhJcv75KAoidcCllgO0yAekDxk8Drs8lJMeAERFRBCZcVNR2/+M51FtKsLmtD0IA3rJ5UA0VmLQsR+nw+wCAjuMu1NeY4PVoZ0r2SsQc01V7lYAwAopBoGyOhLFKwHkoexmXKpdg/eXXYYEQONH1G+x1hCd/qm0jbltSg47DT+BDtwhbPpR0H8DzncC65SuB3qfwXK8jOpZtI25vbYbz1JP42ylbzHL+/tE+OGDHpStuxlKz9vvDsfpsiYhmKSZcVNTOj46gbYEMjtkyjp+Guf8NTFZfhBLnIUD1YlFDKdYts8QsY9VCiZc6ohOIkhrAZAF6/yIBSNRfK2CeDzgPZXED7C3BpKfJ3go4joa9vdi+GBg/iM9d8DfE2VvQhCF8fMifgIVSzatjhlHlEqxfshjOU0/6kzH76pjlQAjA3IKmsvD3/QnbKlzd2K2Z0BERzWacaZ6K3gVzwlucSoffR9WJnRDSC49XRXmJAWPjKlzjasz151qiW60Us/9/oQDGCsB7HhAm/8+h/0QGV9li+2JItwNOKQFrCxaG9FeqcgkWWoGRwe5gi5I/ATvmT8AiuYbgjBWn7To0jR/Em6cGE5cDwGZrRnXk+4PdOCElnO7B1DeUiKjIsYWLZq23O0bRfdoNADhywoXqCiO2rrFpLlsZZ15VYzVQ/6XpVqCGTeEtQn27JTzDqdcvmFD1voJD5TfjKmsNrOXAcffUAlOtWR2OQQAiZPnulLr0VNtGXGUdQsdhf1dgonJUacMiuzUs0QMAW+NKNKEHb/mrQ0REIdjCRbPWgvoStC8uxxyrCStaKnBhU1nMZcs0nuLgGwVGjug4Qn4qoTrpGETPYA+EsKHJZg++HdUKFbJ8sgJdiSePhnQdJiqn3N+dGPp+zfxb8OX5QMfhF3Gc47eIiKKwhYtmraa6UjTUmPCJ4saK5oq4y45rPMXBMwZ4PgFMNfrUL2x8lqsbJ5YsRpO9BTWnBuFAa1Qr1GL7YgghsHT5t7F0qoxEg9gXt12HpqFXsTNkMH6ichY3roRFCFhC3neeehI79znApi0iIm1MuKjoTXgBU1klxub/C9SSGliOPQLhcydeMWT97v6ZTSQiu/UUHMXxoevQZG3GovJ9cJi1uxODg95DxUi2/F2JPXjrva7gMonKiXxfNa/GjctW6rAHiIiKC7sUqeidHKkKJlsAMDb/a5AGc9Lrfz6Qg+cranTrhXYrZtqdON2VGNEFmKiciPcV934cGgKq7S2o4QRkREQxMeGiomf+wk3BZEuZdMBXWpdS0nXg+Mx3k2neJTh1F2C1fQOWp3J3YpADI+NT5bddB0vvU1HzeiUqR+t9p2sIKGvGovKUN5OIaNZgwkVFrbyiEhVV/mSrdPh9VB9/DAD8SVfjTUBJOSrN8S+DRA+yll6BiX7E/Ce9qSVsgW67k6fCx14p4iiODwHCbEN1SCuT1vQQcdk34Crz9BQQkXFjlRPrfYd7GELYUJ18oyER0azDMVxU1IzG6VP8gx4Plkgg+OAeYYDRYETLXO1MoW9U4NkPEycw3jGJgb1ZqGyAvSXm9Ao9gz242tY83co0NdnpAiGAxlvwzcbpZWMNmK8uQ3AKiP+/vXuLjes60Hz/38VrFcm6SpRskqJ4czpNW/KYkpXYVKK0LStoO7YBu6X02FYw6AQj+GEwBwHmIW+DvAwwD904B7ADNNJAErsRG1ZPR4ontiV1d2QFsWjJI1Oh3CNSoiWSknWpKykWqSrWPg91v5EUyZJKVd8PIETWXnuvVbtUrI9rrb12br2LHceXswxFijc5oT9/YVYREYlT4JKKFgoGmL01g62pmT//DzvwXu/EA9RE/DRNvoclmt99ZZpw7qrB8fMQWbj7bbb4PuTtIQpOdrf4PuStk4kfEtuzHsuV1UPm48zwzzgT37D4sQscJ9WunH0txhjHhxS0REQWoyFFqXgfHTrI7K14sPK0buTWtJ+vzhxkYT4/bEUW4B+HLBz7wiCyoCUORERkbaiHSypeKBjgo0MHeeb5l7A1NfO7f/4nZm/dwmJY2GA3cdpgIWYwPWdyLXQPrkgUEZGKp8AlVSEUDPDer36e9VjMhKtBg6upGwyqR0tEREpDQ4oiIiIiJabAJSIiIlJiClwiIiIiJVZbV1e3qgOsdn/VoTruVR0ilWot3j+V8j5XHaqjXOqojUQiq6pwNftXUx1ARTyP8q2joSRtEbkfrcV7tDzf59VZB+j1KKc6YGWvh4YURUREREpMgUtERESkxBS4REREREpMgUuqQovdzhO7drN3/w+xWm33ujkiIlJltNK8VLzO7l6e/M4z1CauKtnY1s742HksBrq1j4iI3BUKXFLxvrX7LzGMjNv2zPvZ87BJ9zqTuprkg/GUFVkwefeUBW/+fa1FRERWTIFLKtoTu3ZnhS0zOs/3HrpWtHxdDbyyIwbA9WmDQ2cMZm+XvJkiIlLhNIdLKlrbps7U92Z0npavfkPU2rasfVtbTJ5/VOOLIiKyeurhkoo2PxfGamtiPjDB+sARLJEQoe4f0TL+DxhmFIDTozP4QhFqagy+vsnGA+761P6tLSZgFDk6WBrB/biBuQBzV2D2SxNTGU1ERHIocElFO/a7w7Q66nnuoesYBkQbHyRW08RtxxYaAp8BMHJpllZnHdFI4aTkaabonK51gwZGLVhqDBo3mtS2GASH1z5xdfYdYKc7HfyCk+9weMoHQMy6nRceGSA49ibHfdnhML6tm4mzv+ZM2CBm9rJrx9NsMrLLXR59I7Xvcsqkjm+6eWzrXh62Zgzbmhc5cfIDLmXsX6gcgBk+xfufDxEwiret2HEXOyciIuVGgUsq2q3pEM88FiP5GV47dwXn6N+CUUvM0kj0dpitXU1s7WkqeoyXB2L8/XFL3tWLjRsN6hwwddAETFzbDGydEBxeu/bH3HvY39fN5dE3eGs0IxBt7cE56SVgGLjd3dgZZ9hLXmec292Nfe4iX84mtnl66MDPn4bjAQziwWWw9/s8mghlyypDOvBcHn2DtzKCWGffAQZ3fB9XRllsPXQ0Zh8z/ty2sbP9AoenfFiMMY4PjaWf446nITdEGsayzomISLnRHC6peA2F/qwwo1hic2CaRKImM3MxZudiRfffYC/Qa2XEHzMsUNsERg1gxL/P/DJW+C6Lmb3s6u3K61myGGMcH/400SvkZrPHBf4LWT1K8f3j20LeC6kQ0uXpgmQASxj3jmftt5wynX0HGLSe5ref5Pd6jZ8/ygQuOtye1GNZwS/Je4HLpkkw7M1/8p4eOhjnUs6m5ZwTEZFypB4uqVp/GJnmwpUwAOcuz2JvquXFJ9wFyzYvcm/sWju0PpX+oN/w3ewP/evHTCKBO2+fu32ADvyMhBcpZOuhoxEmJkfJ695K9CpN+OJdXzGzl04XhKYuZAUTt9UJBPDPQoylyzjb9zHoGufEyaEiAcdHaA4ciZ8KBb/08xvnRIGeuS5PF/iP5oXIZZ0TEZEypB4uqVqbWuvp77Kx0VXH1p4m/qyjsWjZxrr8xxamIXSudDPkfeEAhuGmv+9xnEVm4ieHE3N7glLbMnuVEkOF8QAWFzN72dLmIjT1aTzcLFFmnL7s8oVbhT3zVGYFvzhn2z6ebYORsx8U6JmLh74J7+iKzomISDlSD5dUjVhtM+H136Hp6mEAOtY3sMFZxxeWMFu7i8/hArhZYNJ8ZAYiX0CdsxStBYvvQz72HWCnexvPfWNb3qTw9HDi6TsYTjydms+VnCflmHo3ddwly3i2x3ulJr1QLHAlQttIometq30Ah2Hg2PI6DyeKBCff4e0hHwWvAE0MJxbq+VrqnIiIlCsFLql481Goa2xmpu2viNU7MWusGAvLH5Oaj8K10L2ZG3Rp9GeMJ65CdLTv4xVP+qq+ZM/RyOjyhxMNIx5UIHnV35upsLacMslAFlykzcnhwORVkZ2u9BWEySsqF1NsOHFZ50REpEwpcEnFmwi10NrzMrH6eFfUTNtLNE8dXHbo+vLmvb2/oiX8KYeHPo1PVHd1s9k2xJlwcjgxPq8qbw5U+wD2jJ6qZK/Rx5/kDOFlfr9EmZjpxmUFwv6i4Sbm3sOgy8/I2UQIzOntsoQ/Zdg/wKCn8BWFMet2trhgYqxAiFzGORERKVeawyUVz/rn6bBlue1joWE9M20vYdZYl7X/qUvl0XMSnPVnXT3osLlgzpfX2xQPLX5GRoeyhxMLXMmYaakyFsOHPwxYXQXnT8Ws23mht4uJsfTSD4WueAzO+qGxm822/DoWm5NWSO45EREpVwpcUtGeef4lmlqc3Lx2lduf/R32S7+gJhG6gt0HiGx6YdH5W9enjSVvZB0JxNfiKvZ1p1coOtv28Upfb9ZjMfcenmt3MzGZDlHBWT+GdRtbPBnlUougZqx3tcgk9NR+yygD8eUhDOs2drZ7sh53tu1j/5ZtWYuvpq6KzLk6MTnx3Z6Tdxdb4mK550REpFxpSFEq2ie/P8aLf/0D1m14gHNXvgnTf6S+Pr70Q03Ej/XGvxbdN3nz6rvNN3mEka17eXXH7tRjpu8Ib538kMxhtsDUO3xsO8DOvtd5NVkuZ84VsOgk9DsqQ3zS+i9H97C/bx+vtqcfD06+w1sncybB5wwnpngvcLm3iw5PH/jG0o8vssTFcs+JiEi5Mvr7+1c8O6Wuro5IJLKW7anYOhwOB8HgYlONV69SztVK6vjF9xr46Skr3kh93raXX/sbbE3NAHivf4WndSM1ET9Nk+9hieZ3X5kmnLtqcPw8RBb0YS7lrzV2g588Wc+Pj93m5uzqJxzq91V51aHXo7zqWOnroSFFqXgfHTrI7K14sPK0buTWtJ+vzhxkYT4/bEUW4B+HLBz7wlDYEhGRNaMhRal4oWCA9371c+wOJ9/49lN8dOhgYov+3hARkbujtq6uwBLad2C1+6sO1XG36ggFAxlhS6RyrcX75359n6sO1VGuddSuZqyzUsZj70YdQEU8j/KtY5GbHYpUmbV4j5bn+7w66wC9HuVUB6zs9dCYioiIiEiJKXCJiIiIlJgCl4iIiEiJKXCJiIiIlJgCl4iIiEiJKXCJiIiIlJgCl4iIiEiJKXBJVWix23li12727v8hVqvtXjdHRESqjG7tIxWvs7uXJ7/zDLWJlYE3trUzPnYeiwEb7CZOGyzEDKbnTK6FDGKrv/eviIhIFgUuqWgtdjvffubZrMee2/TvGJ25Jc3Uv6YJ564aHD+PbmAtIiJrQkOKUtEeeWxH1s9mdB5jiQxlGND/oMlLA2CrL2HjRESkaihwSUVr25TuyjKj87R89Rui1rZl7dvaYvL8oxpfFBGR1dOQolS0+bkwVlsT84EJ1geOYImECHX/iJbxf8AwowCcHp3BF4pQU2Pw9U02HnCnu7VaW0ygeJeYpRHcjxuYCzB3BWa/jA9JioiIZFLgkop26N232dNv8rWN6RTU4DvFTMc+mifegViUW3ML7B5wFT3Gnn6TD0fyQ1e9E9Y/ZTB1MH7s1r8waPkzg69+t3aJK2b2smvH02wyDC6PvsFxX3Y7Yu49vNbrZOTsrzkTNrLKZzLDp3j/8yECicc7+w6w050uE5x8h8NTvqL7p45jXuTEyQ8Yp2/RenzFtvuO8Pbo2IrPh4jI/UqBSyre5nXZAagh8BkNwWFiRi3RhQgO2+Jvg83rTCxG/tWLlsbsMBEJQeMDa9LkNE9PKrR0ePrAlx1WujxdMHeaL2eJd8R5eujAz5+G4wEsi2EQc+9hf183l0ff4K3R+PaY2cuurT04J70EjDGOD42lH9/xNIy9mR30DAPci9dTaHvyeK883sOJkx9waanJdCIiFURzuKTiNRTKU2YUS2wOTJNI1GRmLsbsXKzo/hvsBXqtjPhjhgVqm8CoAYz495lfxireZV2eLsywj6BpgquHzozxypjZS6cLQt4LqZ6reAC7GA9gOWJmL7t6u/J6yizGGMeHP00dI8XTQwfjXPIWblexeopttxhj/NvJo0zQxZZ2z7LPgYhIJVAPl1StP4xMc+FKGIBzl2exN9Xy4hPugmWbG4ofp9YOrU+lw8qG72YHl+vHTCKBO29fKlBNHWHYtpdBlxOXDS6FEwUSvVkjPi9gZJS/kB+eAHf7QLx8OG9TQV2eLvAfzeuJWqqe5PaJsaEC232E5sCxvCaIiFQM9XBJ1Xqyv4Xv71rH1p4m9u9uLRq2ipm7Smr+VkkkAtWEz8u4dxzDcNPhTvcM5fUiZZQvxBcOYBhu+vsex7nEzP5UaPKOLtqu4u0u3DMGbuyNi1YtIlKR1MMlVSNW20x4/Xdounr4jvedmS9Bg5aQNT9r9gKXe7vo8MTnWvnoy+tl6vJ0YRgGD295nYcTx8icLG/xfcjHvgPsdG/juW9sS02ULygRmk7EO8/y2rVYPcV6xtLHTffKiYhUCwUuqXjzUahrbGam7a+I1Tsxa6wYC8scV0vsfy10d8NB7rCdhTEu+Z+mw9XNZtsQPmvh4cSCISoj+Fwa/Rnj1u288MgAjvZ9vOLJvnoxaanhxGL1pIcTRykUqJLHzZtoLyJS4TSkKBVvItSSClsAM20vYdZYl73/lzfvwf0VCwzbZQ4r3ulwYiZL+FMOD/2Mj30mNHazOede3jHrdraUYDgx5t7DoMvPyGSB44qIVDgFLqlotqZm1u34IbF6Jw2Bz3CO/h0LDesJdh9guvM1qLfRbF38bVBoDa5MZtRg/gZFv8zonffmFLwK0HuBy6aJ3bObLXdwdWIxwVl/wX3c7m7sq7k60X8hv2fMup0XeruYGCuwjISISBXQkKJUtMGn9gBw89pV7FPHsbaY1Nz2sVDvZqF+HZGNu+kxi8/puj69dDiIzpjcPL5mTS56lZ/FiA8rbnK7sZu+ZV+d6Gzbx7O201kLjsbce3iu3c3l0V9n7RMz3Wz2uMB/ehVXJ2YPJ3b2HYj3bJ19U2FLRKpWrcOhC7TvFp3rUpor+Ognvz/Gi3/9A9ZteIBzV74J03+kvj5+NWJNxI/1xr8WPeL1aYNDZ+5BQFhkwvq4d5yd7u50L1NisdNNhgHt+3i1PV02ter75BFGtu7l1R2709t8R3jr5If5Fdh66GiEickCc7CWqie5ve91Xs3Y7fLoG7w9auQfT0pmLX7X6PdVedHrUV5W8noY/f39K56dUldXRyQSWenuVVWHw+EgGAyWtI5KOVcrqeMX32vgp6eseCP1edtefu1vsDU1A+C9/hWe1o3URPw0Tb6HJTqTV9404dxVg+PnIbKgkCDlrzV2g588Wc+Pj93m5uzqJxzq91V51aHXo7zqWOnroSFFqXjv/ern2B1Onnn+JTytG3nvVz9n9tYMFgM22A2cNliIGUzPmVwL3YMJ8iIiUvEUuKQqhIIBPjp0kG98+ylmb8V7tWImXA0aXE39oaLeLBERKQ1dpShVIxm6RERE7jYFLhEREZESU+ASERERKTEFLhEREZESU+ASERERKTEFLhEREZESU+ASERERKTEFLhEREZESU+ASERERKTEFLqkKLXY7T+zazd79P8Rqtd3r5oiISJXRrX2k4r32n/8LhpG+bc/GdU085LhF9zqTuprsspEFePeUBW/+Pa1FRERWTIFLKlqL3Z4VtgCe67uGUeS2iXU18B8fj3HuqsHx8xBZ0P0VRURk9TSkKBXtkcd2ZP1sRueLhq0kw4D+B01eGgBbfQkbJyIiVUOBSypa26bO1PdmdJ6Wr35D1Nq2rH1bW0yef9QsVdNERKSKaEhRKtr//l/v0uqo57mHrmMYEG18kJmOfVhv/J6GwGcA/PLodVqddZgmPNrTxAPudLdWa4uJp9koOqer9WkDoxYsNQaWRpOZUQgOK6SJiEg2BS6paLemQzy0yUwNI9bOXcF64/fctn+d+uAwxKJs3tDAtx5xFD3Gtk6TD0fyxyHrnVDngKmDJmDS+hcG1jYIDq9d+2Omm8e27uVha3b9ZvgU738+RCDxxGJmL7t2PM0mY6ly+cczzYucOPkBlzL2jVm388IjAwTH3uS4L/uY8W3dTJz9NWfCRqpuEmXXus2dfQfY6U6XCU6+w+Ep3zLOXfr4l0ffyH8e7j281utkJOd5FGrPb8/Dt7YMwNS7eXV39h1g0DWefw7de9jf112wbhGpPgpcUvE2r8vucWoIfEZDcJiYUUt0IYLDtvjbYPM6E4thEMvpuLI0Zn+IRkLQ+MCaNDnN1kNHo58/DcdDASQ/yLexs/1C+sPf00MH2eVScoLL5dE3eCsjAHT2HWBwx/dxnU3v63Z3Y2ecYS+Qczi3uxv73EW+nE1s8/TQwTgnkmXXqM2ZgeWt0YyQtrUH56Q3FciK8vSkwlOHpw98Y1mbuzxdMHc653kUbk/Mur1gFTH3Hna6Dcyc/xsxs5ddvV2YviMKWyICaA6XVIGGQnnKjGKJzYFpEomazMzFmJ2LFd1/g73AMKERf8ywQG0TGDWAEf8+88tYxbssK9wkeS9w2TQJhr2ph+LhIadchs6+AwxaT/PbT/J7W8bPH2UCFx1uDxDvBdvscYH/QlaPTea2kPdCKvB0ebqyyq5Fm5OBJbd3yGKMcXz406XDVuL4ZthH0DTB1UNnRiqKmb10ush/HoucQyCr/THTzWPtXVz2Xcwr524fiIfQ86NLtlNEqoMCl1StiRvznL00i286woUrYS7fmCtadl1z/mML0xA6Z1Jrhw3fNbC2g6Uu/n3mV619Ze0rFG4g/WF+yZsslx8eMjnb9sWHvDKG6bL5CGU+dVsPHY0w4S0QFhK9VxM+b1bdybJr1eZ4eT+h8OLnqJj08Y8w7Adw4spc7zbRm5X7PIq1pxB3+276w0cZnnXCnI9gsm7rdna2uZgY+yAvsIpI9VLgkqrVsb6BRzptbHDXs7W7iT/rKL4C/Vwk/7HIDEx/UcIG5oQbiIenZ9tg5GzGh3lOeMgUM3vZ0uYiNPXpIh/+buyNGT8lhhMv5R8ur/cqN0itRZsBfOEAhuGmv+9xnLnjdcuRcfxx7ziG4U714EGB3qwl2oPVjT0jAMZDVaBgD1ZX+wB2/1ENJYpIFs3hkqoRq20mvP47NF09fMf7zsyXoEFL6GofwGEYOLa8zsOJx4KT7/D2kI/MiVVdni4Mw+DhjHLJiee+5PyqSS9FFyBLhI0Rn5eY6UkMJ55ecjgxPfSYLrsWbQ4YBhbfh3zsO8BO9zae+8a2ZU+Uzzx+an7W7AUu93bR4YnP/fLRF+/NmsoeTlysPbnn4bG++AT6S4ZBp80FYX/8nLj3MOjyM3J2lLzJbyJS1Wrr6upWdYDV7q86VEep65iPQl1jMzNtf0Ws3olZY8VYWP5Y1XwUroXu7odncogrGTSSVw0uVS6LYaSCRzBvz7T4HKyj8YniiR6qkdECgSGr98pIDz1OxsuuVZuTLo3+jPHEMRzt+3jFUzgAFTt+MlBZGOOS/2k6XN1stg3hs6YDZqF2F2tPimc7/Zzm/ZwQm5zTFZp6N/8igLtsLd4/99v7XHWojnKvozYSKTBWcgcVrmb/aqoDqIjnUb51NBTdcrP9P9HU4gTActtHsPsANfM3aJ46CJFbSx75vdOWvCsUS86THQos4U8Z9g8w6Mm5Qi+nXKaY6cZlJdX7Ukhuj0x8ODGAP3nlXoau9gHsGVf15V3JuAZtzmUJf8rhoU8TSy/EA9OZpbJygeOPe8fZ6e6mw+3Bbyt8deLS7Qngn+1j1yNdTIx9kHVOQ7O++JyuAkHsXliL92h5vs+rsw7Q61FOdcDKXg/N4ZKKZmtqToWthsBn2C/9EoCFhvXMtL8M9TaarYu/DZa6kbUZNZi/QdEvM3rnH76FrpgLzvqhsZvNtsU12Fp5AAAcxklEQVTLJVkMH/4wYHUVnAcVs27nhd4uJsbSyyA4bK6sCeCZZbe4/IyMDuUMJ6avTlyLNhcTnPUve5+Cx09cJWn37GbLCq5OdFvj/4c6H3qajoz5WalQa9vOzjZS50dEJJcCl1S0waf2AHDz2lWmLx4HTGpux4eNFurXEdm4m54HrEX3vz699IdndMbk5vHiX9GZO+seK3bFXHIiud26eLlM495xDOs2drZ7sh53tu1j/5ZteQubBmf9GNZtbMkonl4ENWN9qpwrGdeqzc62fbzS15t9Ptx7eK7dzcTk8ocTc8tajDEu+cFITH5fydWJhtFNh6vwUg8Odzd2/+l7PpQoIuVLk+alon3y+2O8+Nc/YN2GBzh35Zsw/Ufq690A1ET8WG/8a9F9r08bHDpzDz5Aiw1xeZOTvxOLeCYX9mzfx6vt6WK5k89/ObqH/X3ZZYCCi3IGpt7hY9sBdva9zqvJcuZFTpx8M2sS/VLDiStts2/yCCNb9/Lqjt1Z7Xzr5IcsaxJ67iKsGZLDiuQs2rrUOcyUf7Vn/ApP07wYD2Lq3RKRIoz+/v4Vz06plPHYu1GHw+EgGFxs6vLqVcq5Wkkdv/heAz89ZcUbqc/bZnc4eeb5l7A1xRfTujXtZ/bfD7K5ZZq6muyykQV495RlyWHE+13mqvNavuD+1xq7wU+erOfHx25zc3b1Ew71+6q86tDrUV51rPT1UA+XVLxQMMBHhw6mQtfv/vmfmL11C4thYYPdxGmDhZjB9JzJtVD+LXwq0fjkaba4BtjU9zrfUugSESk5BS6pCsnQ9Y1vP8XsrXj3VcyEq0GDq6k/VKondCSv/ournuctInKvKHBJ1UiGLrn/JCfuOwrMkbrTRVFFRO4FBS4RKXvZPXIiIvcfLQshIiIiUmIKXCIiIiIlpsAlIiIiUmIKXCIiIiIlpsAlIiIiUmIKXCIiIiIlpsAlVaHFbueJXbvZu/+HWK22e90cERGpMlqHSypeZ3cvT37nGWrr6gDY2NbO+Nh5LAZVe2sfERG5uxS4pOJ9a/dfYmSuUD7vZ8/DJt3rzIybV8dTVmTBrIqbV4uIyN2lwCUVrcVuzw5bwHN91yhwhxgA6mrgPz4e49xVg+PnIbKg+wyKiMjqKXBJRfvui3tT35vReVq++g0LtjZqw1NF9zEM6H/QpP9BuD4Nvx5S6BIRkdVR4JKKNj8XxmprYj4wwfrAESyREKHuH9Ey/g8YZhSA06Mz+EIRamoMvr7JxgPu+tT+rS0mUDxwWRrB/biBuQBzV2D2SxNTc8BERCSHApdUtGO/O0yro57nHrqOYUC08UFiNU3cdmyhIfAZACOXZml11hGNFE5KnmaKzulaN2hg1IKlxqBxo0lti0FweO0SV8x089jWvTxsNbg8+gbHfYXDX8y6nRceGcDOOCdOfsClnDHTmNnLrh1P07HE9k1G4Xpi7j281utk5OyvORM2sspnMn1HeHt0bJHnU7wdxY6ZOrZ5MWufzHNTrEyxcgBm+BTvfz5EwEg/nw7/0bz2x9x72N/XTXDyHQ5P+Yo+NxGRxShwSUW7NR3ioU1mas5W7dwVrDd+z23716kPDkMsyuYNDXzrEUfRY2zrNPlwJD8E1DuhzgFTB03ApPUvDKxtEBxewydg66Gj0U8w7MJh9QD5H/gx081jfd0wB4Qv5IUpgK6HnqZjzk+o0YnLBpfCOQU8Pamg0+HpA1926OjydMHcab6cJd7h5+mhAz9/Go4HsHg74qHllcd7Coa6pdphMcY4PjSWdSzG3swOf4ljdvYdYKc7Hg7fytje2XeAwR3fx3U23a7kOcxqq3sP+/u2sbP9QiJE+QjN5TU33o7erkXDrojIcmgdLql4X9uY3ePUEPiMlstvY5hRItEYtvoaZuZizM7Fiu7/gCO/18pijf9rWKC2CaK3wKiLf5/5ZaziXeZ2d2OfCxBcpEzXQ3vp8F4k2AgT3tG87c62fQy6xjkxerH4MTxdmGEfQdMEVw+dGeOiMbOXTheEvBcIJAJPPIBdjAewBIsxxr+dPMoEXWxp96yoHSmeHjoY55I3f1Nn3wEGraf57Sf5IWj8/FEmcNHhTtcfP4fZbcV7gcumSTDsTbTdhz8MWF04E8893jP2NI6pdxW2RGTVausSaxOt1Gr3Vx2q417V8YeRaS5ciXexnLs8i72plhefcBcs29xQ/Di1dmh9Kv2BvOG72R/O14+ZRAJ33r6Y6Wazx0XIe4RLti4GbW5ye7icbfsY5CjvM8CzjHPCS9aUs5h1OzvbXEyM/ZpxHmcLLuxWIJxZTyJQTR1h2LaXQVdO71OiN2vEFz94svzE2FAqgKXFe4py+wuX045MXZ4u8B/N6yVLhbaTherOrz99Di9klXe3D8SHNTPOV3DWDy43DiBAPMj2h4/y9n04jLgW759KeZ+rDtVRLnXURiKRVVW4mv2rqQ6gIp5H+daxSCIqYlNrPY0NBt5AhA3uehrqivdiNBZ4by1MQ+hcCWfIJ4bCJnxegvjBE+99SQaHmHsPz7YFOHHSx+atLvCfzp8T9cgAdv9RDvsMsBapJyNQjYfH2enupsPt4UwiaBQeTswPd3Fu7I3Zjyy7HRnl44FuNKuCmNnLljYXoakjBYcrC9afcQ6Tx3K27ePZNhg5mz3s6QunU7GzbR+D1tO8//koRdcQKWNr8R4tz/d5ddYBej3KqQ5Y2euhOVxStTrWN7DBWccXljBbu5sWLTtX4L0VmYHIF1DnLE37utoHsCeDTk7HW3xuUXwS+7jtcbY0wsRkdkDpeigxOf18dmjInQuWFahmL3C5t4sOTw/OSS8++hK9XznDiQV6n4C83rA7aUf2MQoEuuTjk97iISin/q72ARyGgWPL6zycKBKcfIe3h3zkpcWwjxDduNq/y2BbYJFeNBGRO6c5XFLx5qMQq20m1PmfCPT9P5g1S3SxFNj/wo27+8GbO2/KFw5AY3y4Kzm3iLH4JHC3uxt7znwnZ9s+droNJsYKT14vVo/FGOOSH2jsZrONVICJ9xBl9D4VmCsGyTB2OjU5fbntyD9G/uT/eDD0LT6fLaP+ZFuDk+/w1sk3+eXwqfgctWJm/QRx0d/mzOv9EhFZLfVwScWbCLXQ2vMysfp4V9RM20s0Tx3EWCgygSjHlzfvwf0Vc3uKkr0vNqA9MbfIZ6TnKGUMsyXnSwFs6nudV3MOHVysHmDcmx5W9NuWP5wYc+9h0OVn5Gy8p+2O2pE8hnU7WwoOJ7pxWYGwv2ivU279uc/NEv6UYf8Ag4neu2LHCU0dSV/hKCKyRhS4pOJZ/zwdtiy3fSw0rE+FLiK3ltz/1KW7/+GbN28qyf3d7LlFOXOUMudLvZW7nlRyramMyfcF6/EmhxV3s6VxecOJMet2XujtYmLszfQ6XXfQjtTTS/TWDecEutyrCHPDUm79xZ5bfGJ8N5ttQ5wpsDRGbvgUEVkrGlKUimZraqapJR62GgKfYb/0S4B46Gp/GeptNFsXfxssdSNrM2owf4OiX2b0zj68Cy3DkB7ughOfp+cW5S55EF/n6jTvny805Je91lRqeHAye65ScljRsLqxL2M4sbPvAK890s3E2fSaWXfSjnR74r11hYYTId7zZli3sTNnyQln2z72b9lGMGPNroLnkPjEeMNwx6+QzJE7HCoispbUwyUVrbY2/V/8/4xH6DUhdeMeo4bamlp6Hig8p+v6tMGhM0t/+EZnTG4eX4PGJi3S05I5Fyp3yYPOvgOJIbUlJnsneol8iwwPJocVU2ttJYYTNxkG5AwPXh59g7dHjdRB7rQdqTK2HjoKTP5Psvg+5Jeje9jft49X29OPx+do5UyCL3YOU7132Yu7FrsyUkRkrRj9/f0rnp1SKZd43o06HA4HweBi031Xr1LO1Urq+MX3GvjpKSveSH3etpdf+xtsTc0AeK9/had1IzURP02T72GJ5ndfmSacu2pw/DxEFvThK+WvNXaDnzxZz4+P3ebm7OonHOr3VXnVodejvOpY6euhIUWpeB8dOsjsrXiw8rRu5Na0n6/OHGRhPj9sRRbgH4csHPvCUNgSEZE1oyFFqXihYICPDh3kmedfwtbUzO/++Z+YvXULi2Fhg93EaYOFmMH0nMm10D24IlFERCqeApdUhVAwwHu/+nnWYzETrgYNrqZ6htWjJSIipaEhRREREZESU+ASERERKTEFLhEREZESU+ASERERKTEFLhEREZESU+ASERERKTEFLhEREZESU+ASERERKTEFLqkKLXY7T+zazd79P8Rqtd3r5oiISJXRSvNS8Tq7e3nyO89QW1cHwMa2dsbHzmMx0K19RETkrlDgkor3rd1/iWFk3LZn3s+eh02615nU1SQfjKesyILJu6csePPvay0iIrJiClxS0Z7YtTsrbJnReb730LWi5etq4JUdMQCuTxscOmMwe7vkzRQRkQqnOVxS0do2daa+N6PztHz1G6LWtmXt29pi8vyjGl8UEZHVq61LzGtZqdXurzpURynrmJ8LY7U1MR+YYH3gCJZIiFD3j2gZ/wcMMwrA6dEZfKEINTUGX99k4wF3fWr/1hYTMIocHSyN4H7cwFyAuSsw+6WJqYwm99havH/up/e56lAd90MdtZFIZFUVrmb/aqoDqIjnUb51NBR89NjvDtPqqOe5h65jGBBtfJBYTRO3HVtoCHwGwMilWVqddUQjhZOSp5mic7rWDRoYtWCpMWjcaFLbYhAcXrvEFTPdPLZ1Lw9bs0OfGT7F+58PEUgMl8bMXnbteJpNxlLl8o9nmhc5cfIDLmXsG7Nu54VHBgiOvclxX/Yx49u6mTj7a86EjVTdJMquVZt99BXe7jvC26Njyz6H1Wgt3qPl+T6vzjpAr0c51QErez00h0sq2q3pEM88FiP5mV07dwXn6N+CUUvM0kj0dpitXU1s7WkqeoyXB2L8/XFL3tWLjRsN6hwwddAETFzbDGydEBxewydg66Gj0c+fhuPhBiDm3sP+vm3sbL/A4SlfvJynhw6yy6Uknnxn3wF2ug0uj77BWxkhqrPvAIM7vo/rbHpft7sbO+MMe8nr4HO7u7HPXeTL2cQ2Tw8djHMiWXat2uzO354Maa883pMXEkVEypnmcEnFayj0Z4UZxRKbA9MkEjWZmYsxOxcruv8Ge4FeKyP+mGGB2iYwagAj/n3ml7GKd1lWuEnyXuCyaRIMe1MPdXm6ILdchs6+AwxaT/PbT97I67EaP3+UCVx0uD1AvBdss8cF/gt5gSa5LeS9kOqp6vJ0ZZVdqzYX2m4xxvi3k0eZoIst7Z7CO4qIlCH1cEnV+sPINBeuhAE4d3kWe1MtLz7hLli2ufCIJQC1dmh9Kh1MNnw3O6RcP2YSCdx5+wqFGwB3+0BWj1LM7KXTBaGp7HJJzrZ9DLrGOXFyqOB28BGaA0fyR1sPHY0wMTlKXvdWovdqwhevPFn3xNho4ue1aXP6uIXanNNeEZH7gAKXVK1NrfU0Nhh4AxE2uOtpqCs+PNVYYH7kwjSEzpVwhnxOuIF4eHq2DUbOZgynJYbmRnz5438xs5ctbS5CU0cWGX5zY2/M+OkOhhNzg9RatDm9PeO4i7RXROR+oMAlVSNW20x4/XdounoYgI71DWxw1vGFJczW7uJzuABuFpg0H5mByBdQ5yxFa6GrfQCHYeDY8joPJx4LTr7D20M+MlNIl6cLwzB4OKNcauJ5MrhMelNzufJkhJ+Y6UkMJ55ecjgxPfSYLrsWbQ4YRmKY8mjhkLhUWBMRKUMKXFLx5qNQ19jMTNtfEat3YtZYMRbCd7T/tdDd/WBPDqkFJ9/h8JQvddXgUuWyJIPL3GmCi9SVDDdnwkaqh2pkdOnhxNyhx7Vqc+4w5aLtFRG5T2jSvFS8iVBLKmwBzLS9hFljXfb+X968B/dXTPTixMMNWMKfMuwHu6cHZ+ZCXznlMsVMNy4rEPYXmbsVv3pw0OVnZHIUSA4nBvAXmMje1T6QNRk+OfR4KVn1GrQ5vT3juIu0V0TkfqHAJRXP+ucvp8KW5baPhYb1dxS6Tl26+z0pha7QC876obGbzbbFyyVZDB/+MGB1ZQeehJh1Oy/0djExll52wWFzwZwvr0csZt3OFpefkdGhnOHE9NWJa9Hm1PZCV0gWaK+IyP1CQ4pS0Z55/iWaWpzcvHYV+9Q7tLaYTHf+gIWG9QS7D1A3M8bWusNF978+bSx5I+tIILkW19oodgWfLxzAMLqxW4Hw0lf6AYx7x9mZu/4V8Ynsz7W7uTyavUxEcNaP4d7GFs8QxxPFMxdBTQWdIsOJq21zseHEzr4D8Z6ts28qbInIfUmBSyraJ78/xot//QPWbXiAc1e+CdN/pL4+vvRDTcSP9ca/Ft03efPqu67YpHDvBS73dtHh6QPfGHh64quwt+/j1fZ0sczJ5xbfh/xydA/7+7LLQHzF9tw1uQJT7/Cx7QA7+17n1WQ58yInTr6Z1eOUdyXjGrXZl9yeUT/A5dE3eHvUQJPkReR+ZfT396/4T/NKWab/btThcDgIBheburx6lXKuVlLHL77XwE9PWfFG6vO2vfza32BragbAe/0rPK0bqYn4aZp8D0s0v/vKNOHcVYPj5yGyUJkf8JmrzueGLrn/tMZu8JMn6/nxsdvcnF19b6t+X5VXHXo9yquOlb4emsMlFe+jQweZvRUPVp7Wjdya9vPVmYMszOeHrcgC/OOQhWNfGBUbtgDGJ08TNE029b3Ot9y627aISKlpSFEqXigY4L1f/Ry7w8k3vv0UHx06mNhSvX9vWMKfcnjo08RPlRssRUTKRfV+4kjVCQUDGWFLRETk7lHgEhERESkxBS4RERGRElPgEhERESkxBS4RERGRElPgEhERESkxBS4RERGRElPgEhERESkxBS4RERGRElPgkqrQYrfzxK7d7N3/Q6xW271ujoiIVJlah8Nxr9tQNXSuS2mu6JbO7l6e/M4z1NbVAbCxrZ3xsfNYDNhgN3HaYCFmMD1nci1kENOtBeU+txa/a/T7qrzo9SgvK3k9aldzB/JKufN3Od9d/E5UyrlaWR0NBR9tsdv59jPPZj323KZ/x+jMLWmm/jVNOHfV4Ph5KvoG1lK5Vvu7Rr+vyqsOvR7lVcdKXw8NKUpFe+SxHVk/m9F5jCUylGFA/4MmLw2Arb6EjRMRkaqhwCUVrW1TuivLjM7T8tVviFrblrVva4vJ849qfFFERFZPgUsq2vxcOP5vYALH5NvUhq8w+8CzmEZtqszp0RmOnPbzL2cCXPXdztq/teXOAld3w21+sC7Ai64Q3Q23l96hBDr7DvDKlu04TYXFcjDwtQB/+2iYB/V6iFS12qWLiNy/Dr37Nnv6Tb62Mf1h1+A7xUzHPpon3oFYlFtzC+wecBU9xp5+kw9Hlp7L9Rf2GXY2h/nvV9ZjtZj8t403+XjGyr+Emtfkucj9J2Yu8ID1XrdCRMqBApdUvM3rsnsWGgKf0RAcJmbUEl2I4LAt/jbYvM7EYix99WKzJca8GQ9m4ZjBvGnQbImtqu1yf7MYNfz2jJPfAtzB9RcxM8KPvnkLRh383KsLN0QqgYYUpeI1FMpTZhRLbA5Mk0jUZGYuxuxc4XDUUBtfPqKYGgOctQs0WOKfqc7aBZy1CxhAgyW+XUREqpt6uKRq/WFkmgtX4nO8zl2exd5Uy4tPuAuWbS686gQA62ujHGj1pX7+rxu8qe/7rXN8PG3jq8jy3mqdfQcYtJ7m/c+HCGRcTpn5uA8Pj23dy8PW+HbTvMiJkx9wqcDllzGzl107nsYx9S6Hp3yL1hOzbueFRwZwJH42w6fy2iF3buBrAV61NvA//08jk8R4/j9M81S4if95a47/1hEP+aZZy1t/tHHaMHiwfTrxuAEPhfg74KuJZv7HZM09fR4isjoKXFK1nuxvYftDTXwxEWZrd9O9bg4A495xBnu72Wwb4kw8CxKzbmeLCybG4uHH3bYdRt/krbBBzHTz2Na9DG59nOAqwlHMvYfXep2MnH2TwxnHfXYrCl0lYLhn2X+rmf/6x5rU8OGrfxbl9P+t48pkC/9lQkOKIpVGQ4oiyzAzf5cq8n7KyJyLDrcn9ZDb3Y2dcS4lOs4CUx9yJhz/ELYYPj6bHIdGNytdhzpmunmsvYuJsV9nH3f0NKHGbjbrTkhrzgzX88uJ+K9fi1HH7yZrwHWbAV3JKFKx1MMlFW8+WmQe1x3sfy10d3oZLIaPL71++j09OCe9+PCw2eMiNHUka8iws+8AO93pn03z4sortfXQ0QiOvtd5tcDmoBUIr/zwUkC4livqNRSpKgpcUvG+vGlkLQuxkv3v5v0Vfb6LhNoG2OIZ4t/CPXQ0+pnweQEjNSerg3E+/iQ+bys+HLj6ei+PvsFxX6EQoGAgIrJaClxS8T4cMYjG4rfryWVYDJqti4+sL7UG123TYHy++D2Abpt3Flgs4U8Z9g8w6OnDPduN3X86NdSHp4cO/IycTU+Sd1udQKDI0XyE5qDD5gZ8hYvM+gkCDquneBkREVkVBS6pCr8/b7C+JX/l+Loag55FVqa8Pr10WPJFa/jFTeeq25gpPnl+gJ1WFxOTo2T2MhmGG3timC9m3c7ONhfFApfF8OEPA64eOs3RVI/YTreBGU6WGWN4aoDn2vfxrXC6lytm3c4L7X4Oj46t6XOT5VtvjQG6OlGkEihwSVWILsChMwbPP7r82/VcnzY4dOYeDad5LzDR+zQdnObj+GgiABbfh/x2ch/PJeZbmeFTvD82zrOLDCmOn38X19a97PzG6+wETN8RPvZ1MZiRMwNT7/Bb0scleezPR1nybt+y5ixGHX8/Wsf/+9AMf9ehZSFEKoHR39+/4tkpdXV1RCKRtWxPxdbhcDgIBoMlraNSztVK6vjF9xr46Skr3kjxoT2AuhqTA982F80QpgnnrhocPw+RBYUNKX+tsRv85Ml6fnzsNjdnVz/hUL+vyqsOvR7lVcdKXw/1cElViSwY/H//klz6IL6CvNMGCzGD6TmTa6G7O0FeRESqgwKXVK2YCVeDBldTf6ioN0tEREpDC5+KiIiIlJgCl4iIiEiJKXCJiIiIlJgCl4iIiEiJKXCJiIiIlJiuUpSK0dkwTc187F43Q+Sua7frb2eRcldbV1e3qgOsdn/VoTrWqo79j+jvBxFYm/doub7PVYfquF/rqF3NiqyVsmrs3agDqIjnUa51/PiY1tAS8SZWmV+L92g5vs+rtQ7Q61FOdcDKXg91CUhFWIvbmYiIiJSKBv6lKjkcjpLXUa7d2uVYh16P8qpDRNaeApeIiIhIiSlwiYiIiJSYApeIiIhIiSlwiYiIiJSYApeIiIhIiSlwiYiIiJSYApeIiIhIiSlwiYiIiJSYApeIiIhIiSlwiYiIiJSYApeIiIhIiSlwiYiIiJSYApeIiIhIiSlwiYiIiJSYApeIiIhIiSlwiYiIiJSYApeIiIhIiSlwiYiIiJSYApeIiIhIiSlwiYiIiJSYApeIiIhIidXW1dWt6gCr3V91qA7VoTpUh+pQHaqj0uuojUQiq6pwNftXUx1ARTyPSqkD9HqUUx2g16Oc6gC9HuVUB+j1KKc6YGWvh4YURUREREpMgUtERESkxBS4REREREpMgUtERESkxBS4REREREpMgUtERESkxBS4REREREpMgUtERESkxBS4REREREpMgUtERESkxBS4REREREpMgUtERESkxBS4REREREpMgUtERESkxBS4REREREpMgUtERESkxBS4REREREpMgUtERESkxBS4REREREpMgUtERESkxBS4REREREpMgUtERESkxBS4RERERErs/wec2iFPRkBi/gAAAABJRU5ErkJggg==;" vertex="1" parent="1">
          <mxGeometry x="40" y="120" width="604" height="615" as="geometry" />
        </mxCell>
        <mxCell id="3cVmpTpY63DD1FdDT410-3" value="Spring 事务的传播" style="text;html=1;align=center;verticalAlign=middle;resizable=0;points=[];autosize=1;strokeColor=none;fillColor=none;fontSize=25;fontFamily=Comic Sans MS;" vertex="1" parent="1">
          <mxGeometry x="60" y="10" width="220" height="40" as="geometry" />
        </mxCell>
        <mxCell id="3cVmpTpY63DD1FdDT410-4" value="类图 枚举 Propagation" style="text;html=1;align=center;verticalAlign=middle;resizable=0;points=[];autosize=1;strokeColor=none;fillColor=none;fontSize=25;fontFamily=Comic Sans MS;" vertex="1" parent="1">
          <mxGeometry x="60" y="70" width="270" height="40" as="geometry" />
        </mxCell>
        <mxCell id="3cVmpTpY63DD1FdDT410-39" value="" style="shape=table;html=1;whiteSpace=wrap;startSize=0;container=1;collapsible=0;childLayout=tableLayout;fontFamily=Comic Sans MS;fontSize=20;" vertex="1" parent="1">
          <mxGeometry x="20" y="800" width="840" height="360" as="geometry" />
        </mxCell>
        <mxCell id="3cVmpTpY63DD1FdDT410-52" style="shape=tableRow;horizontal=0;startSize=0;swimlaneHead=0;swimlaneBody=0;top=0;left=0;bottom=0;right=0;collapsible=0;dropTarget=0;fillColor=none;points=[[0,0.5],[1,0.5]];portConstraint=eastwest;fontFamily=Comic Sans MS;fontSize=20;" vertex="1" parent="3cVmpTpY63DD1FdDT410-39">
          <mxGeometry width="840" height="46" as="geometry" />
        </mxCell>
        <mxCell id="3cVmpTpY63DD1FdDT410-53" value="REQUIRED" style="shape=partialRectangle;html=1;whiteSpace=wrap;connectable=0;fillColor=none;top=0;left=0;bottom=0;right=0;overflow=hidden;fontFamily=Comic Sans MS;fontSize=20;" vertex="1" parent="3cVmpTpY63DD1FdDT410-52">
          <mxGeometry width="222" height="46" as="geometry">
            <mxRectangle width="222" height="46" as="alternateBounds" />
          </mxGeometry>
        </mxCell>
        <mxCell id="3cVmpTpY63DD1FdDT410-54" value="&lt;font style=&quot;font-size: 15px&quot;&gt;支持当前事务，如果当前没有事务，则新建一个事务，这是默认的事务传播类型&lt;/font&gt;" style="shape=partialRectangle;html=1;whiteSpace=wrap;connectable=0;fillColor=none;top=0;left=0;bottom=0;right=0;overflow=hidden;fontFamily=Comic Sans MS;fontSize=20;align=left;" vertex="1" parent="3cVmpTpY63DD1FdDT410-52">
          <mxGeometry x="222" width="618" height="46" as="geometry">
            <mxRectangle width="618" height="46" as="alternateBounds" />
          </mxGeometry>
        </mxCell>
        <mxCell id="3cVmpTpY63DD1FdDT410-40" value="" style="shape=tableRow;horizontal=0;startSize=0;swimlaneHead=0;swimlaneBody=0;top=0;left=0;bottom=0;right=0;collapsible=0;dropTarget=0;fillColor=none;points=[[0,0.5],[1,0.5]];portConstraint=eastwest;fontFamily=Comic Sans MS;fontSize=20;" vertex="1" parent="3cVmpTpY63DD1FdDT410-39">
          <mxGeometry y="46" width="840" height="54" as="geometry" />
        </mxCell>
        <mxCell id="3cVmpTpY63DD1FdDT410-41" value="REQUIRES_NEW" style="shape=partialRectangle;html=1;whiteSpace=wrap;connectable=0;fillColor=none;top=0;left=0;bottom=0;right=0;overflow=hidden;fontFamily=Comic Sans MS;fontSize=20;" vertex="1" parent="3cVmpTpY63DD1FdDT410-40">
          <mxGeometry width="222" height="54" as="geometry">
            <mxRectangle width="222" height="54" as="alternateBounds" />
          </mxGeometry>
        </mxCell>
        <mxCell id="3cVmpTpY63DD1FdDT410-42" value="&lt;font style=&quot;font-size: 15px&quot;&gt;创建一个新事物，暂停当前事务（如果当前存在事务），当主事务异常回滚时，不会影响新事务的提交&lt;/font&gt;" style="shape=partialRectangle;html=1;whiteSpace=wrap;connectable=0;fillColor=none;top=0;left=0;bottom=0;right=0;overflow=hidden;fontFamily=Comic Sans MS;fontSize=20;align=left;" vertex="1" parent="3cVmpTpY63DD1FdDT410-40">
          <mxGeometry x="222" width="618" height="54" as="geometry">
            <mxRectangle width="618" height="54" as="alternateBounds" />
          </mxGeometry>
        </mxCell>
        <mxCell id="3cVmpTpY63DD1FdDT410-44" value="" style="shape=tableRow;horizontal=0;startSize=0;swimlaneHead=0;swimlaneBody=0;top=0;left=0;bottom=0;right=0;collapsible=0;dropTarget=0;fillColor=none;points=[[0,0.5],[1,0.5]];portConstraint=eastwest;fontFamily=Comic Sans MS;fontSize=20;" vertex="1" parent="3cVmpTpY63DD1FdDT410-39">
          <mxGeometry y="100" width="840" height="46" as="geometry" />
        </mxCell>
        <mxCell id="3cVmpTpY63DD1FdDT410-45" value="SUPPORTS" style="shape=partialRectangle;html=1;whiteSpace=wrap;connectable=0;fillColor=none;top=0;left=0;bottom=0;right=0;overflow=hidden;fontFamily=Comic Sans MS;fontSize=20;" vertex="1" parent="3cVmpTpY63DD1FdDT410-44">
          <mxGeometry width="222" height="46" as="geometry">
            <mxRectangle width="222" height="46" as="alternateBounds" />
          </mxGeometry>
        </mxCell>
        <mxCell id="3cVmpTpY63DD1FdDT410-46" value="&lt;font style=&quot;font-size: 15px&quot;&gt;支持当前事务，如果不存在，则不以事务运行&lt;/font&gt;" style="shape=partialRectangle;html=1;whiteSpace=wrap;connectable=0;fillColor=none;top=0;left=0;bottom=0;right=0;overflow=hidden;fontFamily=Comic Sans MS;fontSize=20;align=left;" vertex="1" parent="3cVmpTpY63DD1FdDT410-44">
          <mxGeometry x="222" width="618" height="46" as="geometry">
            <mxRectangle width="618" height="46" as="alternateBounds" />
          </mxGeometry>
        </mxCell>
        <mxCell id="3cVmpTpY63DD1FdDT410-48" value="" style="shape=tableRow;horizontal=0;startSize=0;swimlaneHead=0;swimlaneBody=0;top=0;left=0;bottom=0;right=0;collapsible=0;dropTarget=0;fillColor=none;points=[[0,0.5],[1,0.5]];portConstraint=eastwest;fontFamily=Comic Sans MS;fontSize=20;" vertex="1" parent="3cVmpTpY63DD1FdDT410-39">
          <mxGeometry y="146" width="840" height="64" as="geometry" />
        </mxCell>
        <mxCell id="3cVmpTpY63DD1FdDT410-49" value="NOT_SUPPORT" style="shape=partialRectangle;html=1;whiteSpace=wrap;connectable=0;fillColor=none;top=0;left=0;bottom=0;right=0;overflow=hidden;fontFamily=Comic Sans MS;fontSize=20;" vertex="1" parent="3cVmpTpY63DD1FdDT410-48">
          <mxGeometry width="222" height="64" as="geometry">
            <mxRectangle width="222" height="64" as="alternateBounds" />
          </mxGeometry>
        </mxCell>
        <mxCell id="3cVmpTpY63DD1FdDT410-50" value="&lt;font style=&quot;font-size: 15px&quot;&gt;不以事务运行，如果存在事务，则挂起事务，但是当前不以事务运行的方法错误时，会导致拥有事务的方法回滚&lt;/font&gt;" style="shape=partialRectangle;html=1;whiteSpace=wrap;connectable=0;fillColor=none;top=0;left=0;bottom=0;right=0;overflow=hidden;fontFamily=Comic Sans MS;fontSize=20;align=left;" vertex="1" parent="3cVmpTpY63DD1FdDT410-48">
          <mxGeometry x="222" width="618" height="64" as="geometry">
            <mxRectangle width="618" height="64" as="alternateBounds" />
          </mxGeometry>
        </mxCell>
        <mxCell id="3cVmpTpY63DD1FdDT410-55" style="shape=tableRow;horizontal=0;startSize=0;swimlaneHead=0;swimlaneBody=0;top=0;left=0;bottom=0;right=0;collapsible=0;dropTarget=0;fillColor=none;points=[[0,0.5],[1,0.5]];portConstraint=eastwest;fontFamily=Comic Sans MS;fontSize=20;" vertex="1" parent="3cVmpTpY63DD1FdDT410-39">
          <mxGeometry y="210" width="840" height="57" as="geometry" />
        </mxCell>
        <mxCell id="3cVmpTpY63DD1FdDT410-56" value="NESTED" style="shape=partialRectangle;html=1;whiteSpace=wrap;connectable=0;fillColor=none;top=0;left=0;bottom=0;right=0;overflow=hidden;fontFamily=Comic Sans MS;fontSize=20;" vertex="1" parent="3cVmpTpY63DD1FdDT410-55">
          <mxGeometry width="222" height="57" as="geometry">
            <mxRectangle width="222" height="57" as="alternateBounds" />
          </mxGeometry>
        </mxCell>
        <mxCell id="3cVmpTpY63DD1FdDT410-57" value="&lt;font style=&quot;font-size: 15px&quot;&gt;和REQUIRES_NEW 表现类似，暂停当前事务，创建一个新事物，但是不同的是，当主事务异常回滚时，也会影响 NESTED 创建的新事务回滚&lt;/font&gt;" style="shape=partialRectangle;html=1;whiteSpace=wrap;connectable=0;fillColor=none;top=0;left=0;bottom=0;right=0;overflow=hidden;fontFamily=Comic Sans MS;fontSize=20;align=left;" vertex="1" parent="3cVmpTpY63DD1FdDT410-55">
          <mxGeometry x="222" width="618" height="57" as="geometry">
            <mxRectangle width="618" height="57" as="alternateBounds" />
          </mxGeometry>
        </mxCell>
        <mxCell id="3cVmpTpY63DD1FdDT410-58" style="shape=tableRow;horizontal=0;startSize=0;swimlaneHead=0;swimlaneBody=0;top=0;left=0;bottom=0;right=0;collapsible=0;dropTarget=0;fillColor=none;points=[[0,0.5],[1,0.5]];portConstraint=eastwest;fontFamily=Comic Sans MS;fontSize=20;" vertex="1" parent="3cVmpTpY63DD1FdDT410-39">
          <mxGeometry y="267" width="840" height="47" as="geometry" />
        </mxCell>
        <mxCell id="3cVmpTpY63DD1FdDT410-59" value="NAVER" style="shape=partialRectangle;html=1;whiteSpace=wrap;connectable=0;fillColor=none;top=0;left=0;bottom=0;right=0;overflow=hidden;fontFamily=Comic Sans MS;fontSize=20;" vertex="1" parent="3cVmpTpY63DD1FdDT410-58">
          <mxGeometry width="222" height="47" as="geometry">
            <mxRectangle width="222" height="47" as="alternateBounds" />
          </mxGeometry>
        </mxCell>
        <mxCell id="3cVmpTpY63DD1FdDT410-60" value="&lt;font style=&quot;font-size: 15px&quot;&gt;非事务运行，如果存在事务，则抛出异常&lt;/font&gt;" style="shape=partialRectangle;html=1;whiteSpace=wrap;connectable=0;fillColor=none;top=0;left=0;bottom=0;right=0;overflow=hidden;fontFamily=Comic Sans MS;fontSize=20;align=left;" vertex="1" parent="3cVmpTpY63DD1FdDT410-58">
          <mxGeometry x="222" width="618" height="47" as="geometry">
            <mxRectangle width="618" height="47" as="alternateBounds" />
          </mxGeometry>
        </mxCell>
        <mxCell id="3cVmpTpY63DD1FdDT410-61" style="shape=tableRow;horizontal=0;startSize=0;swimlaneHead=0;swimlaneBody=0;top=0;left=0;bottom=0;right=0;collapsible=0;dropTarget=0;fillColor=none;points=[[0,0.5],[1,0.5]];portConstraint=eastwest;fontFamily=Comic Sans MS;fontSize=20;" vertex="1" parent="3cVmpTpY63DD1FdDT410-39">
          <mxGeometry y="314" width="840" height="46" as="geometry" />
        </mxCell>
        <mxCell id="3cVmpTpY63DD1FdDT410-62" value="MANDATORY" style="shape=partialRectangle;html=1;whiteSpace=wrap;connectable=0;fillColor=none;top=0;left=0;bottom=0;right=0;overflow=hidden;fontFamily=Comic Sans MS;fontSize=20;" vertex="1" parent="3cVmpTpY63DD1FdDT410-61">
          <mxGeometry width="222" height="46" as="geometry">
            <mxRectangle width="222" height="46" as="alternateBounds" />
          </mxGeometry>
        </mxCell>
        <mxCell id="3cVmpTpY63DD1FdDT410-63" value="&lt;font style=&quot;font-size: 15px&quot;&gt;支持当前事务，如果不存在，则抛出异常&amp;nbsp; 如其名，必须要有事务&lt;/font&gt;" style="shape=partialRectangle;html=1;whiteSpace=wrap;connectable=0;fillColor=none;top=0;left=0;bottom=0;right=0;overflow=hidden;fontFamily=Comic Sans MS;fontSize=20;align=left;" vertex="1" parent="3cVmpTpY63DD1FdDT410-61">
          <mxGeometry x="222" width="618" height="46" as="geometry">
            <mxRectangle width="618" height="46" as="alternateBounds" />
          </mxGeometry>
        </mxCell>
      </root>
    </mxGraphModel>
  </diagram>
</mxfile>
